<svg width="504" height="440" viewBox="0 0 504 440" fill="none" xmlns="http://www.w3.org/2000/svg">
<path d="M356.292 113.609C356.9 57.1076 322.377 0 270.028 0C236.703 0 189.245 35.0819 182.295 73.838C181.814 73.7798 181.122 73.3526 180.28 72.6488C155.155 51.6375 117.503 53.4238 93.8126 76.0271C83.2426 86.1129 74.95 98.5526 69.7866 112.507C37.9744 116.817 13.3937 143.813 13.0044 176.633C12.5761 213.108 43.5221 242.957 80.1036 242.957H363.743C404.68 242.957 439.324 209.55 439.013 168.721C438.706 129.082 403.804 88.6998 356.292 113.609Z" fill="url(#paint0_linear_2251_14471)" fill-opacity="0.58"/>
<path d="M403.215 272.935C403.215 187.295 333.751 117.87 248.063 117.87C162.375 117.87 92.9115 187.295 92.9115 272.935C92.9115 358.575 162.375 428 248.063 428C333.751 428 403.215 358.575 403.215 272.935Z" fill="#D6E6EE"/>
<path d="M396.376 165.681C397.565 164.951 398.852 164.391 400.197 164.019L400.976 160.235L407.363 160.129L408.283 163.877C409.637 164.208 410.941 164.719 412.158 165.398L415.396 163.276L419.978 167.715L417.979 171.021C418.709 172.211 419.269 173.496 419.642 174.841L423.428 175.619L423.535 182.003L419.784 182.922C419.458 184.277 418.946 185.58 418.262 186.795L420.385 190.013L415.838 194.611L412.582 192.613C411.389 193.336 410.104 193.895 408.761 194.275L407.982 198.059L401.595 198.165L400.675 194.381C399.322 194.048 398.019 193.536 396.8 192.86L393.58 194.965L388.98 190.544L391.068 187.308C390.344 186.115 389.785 184.83 389.404 183.488L385.636 182.71L385.512 176.326L389.263 175.407C389.593 174.053 390.105 172.751 390.784 171.534L388.679 168.298L393.102 163.718L396.376 165.681ZM399.773 174.187C398.829 175.163 398.196 176.397 397.954 177.733C397.712 179.069 397.872 180.447 398.414 181.692C398.956 182.937 399.856 183.993 400.998 184.727C402.141 185.461 403.476 185.839 404.835 185.815C406.193 185.79 407.513 185.363 408.628 184.588C409.744 183.813 410.604 182.724 411.1 181.46C411.596 180.197 411.706 178.814 411.415 177.488C411.125 176.161 410.447 174.951 409.469 174.01C408.82 173.376 408.052 172.877 407.208 172.543C406.365 172.208 405.464 172.044 404.557 172.061C403.65 172.077 402.755 172.273 401.925 172.638C401.094 173.003 400.345 173.53 399.72 174.187H399.773Z" fill="#D6E6EE"/>
<path d="M323.026 215.92H365.702V91.7829H323.026V215.92Z" fill="url(#paint1_linear_2251_14471)"/>
<path d="M137.819 141.094H158.679V80.4051H137.819V141.094Z" fill="url(#paint2_linear_2251_14471)"/>
<path d="M98.4454 144.795L115.325 159.967L131.868 144.795L98.4454 144.795Z" fill="white"/>
<path d="M125.817 87.4296H104.957L104.957 148.119H125.817L125.817 87.4296Z" fill="url(#paint3_linear_2251_14471)"/>
<path d="M300.593 409.065C298.848 403.314 298.711 397.191 300.199 391.368C301.688 385.545 304.742 380.247 309.028 376.056C313.314 371.865 318.666 368.944 324.494 367.612C330.323 366.281 336.404 366.591 342.069 368.509C341.952 362.102 343.58 355.784 346.777 350.241C349.975 344.699 354.619 340.142 360.207 337.065C365.796 333.988 372.115 332.508 378.48 332.785C384.844 333.063 391.012 335.088 396.315 338.64C397.726 335.669 399.719 333.016 402.176 330.84C404.632 328.663 407.501 327.009 410.609 325.977C413.717 324.944 417.001 324.554 420.262 324.831C423.524 325.108 426.697 326.045 429.589 327.586C432.481 329.128 435.034 331.242 437.094 333.801C439.153 336.36 440.677 339.312 441.574 342.478C442.47 345.645 442.721 348.961 442.311 352.228C441.901 355.495 440.838 358.644 439.187 361.487C443.859 360.3 448.785 360.641 453.252 362.461C457.718 364.28 461.492 367.483 464.027 371.605C466.562 375.728 467.725 380.555 467.349 385.387C466.973 390.219 465.076 394.806 461.934 398.481C480.356 390.328 504.602 406.736 503.989 426.979L280.162 426.328C281.728 423.314 287.279 409.442 300.593 409.065Z" fill="#EDF8FD"/>
<path d="M64.0888 274.252H45.27V386.946H64.0888V274.252Z" fill="url(#paint4_linear_2251_14471)"/>
<path d="M80.4942 169.171C80.7756 168.798 81.1371 168.492 81.5521 168.277C81.9671 168.061 82.4251 167.942 82.8924 167.927C83.3597 167.911 83.8245 168.001 84.2526 168.189C84.6807 168.377 85.0613 168.659 85.3664 169.013C88.6461 172.845 90.4931 177.697 90.5918 182.74V258.917H76.6817C76.6817 258.917 75.8047 192.789 75.8047 182.74C75.8608 177.829 77.5061 173.069 80.4942 169.171Z" fill="#F36D45"/>
<path d="M80.4957 169.171C80.1178 169.64 79.7641 170.128 79.436 170.633C78.4927 172.092 77.7087 173.648 77.0973 175.274C76.1308 177.871 75.6678 180.628 75.7331 183.398C75.7331 186.626 75.8062 190.304 75.8428 194.361C76.0133 210.682 76.2569 233.338 76.537 258.917V259.063H90.8004V258.917C90.8004 231.974 90.8004 207.759 90.8004 190.28V184.044C90.8004 183.057 90.8004 182.095 90.7151 181.169C90.6462 180.271 90.5119 179.38 90.3131 178.502C89.6449 175.601 88.4024 172.863 86.659 170.45C86.3058 169.951 85.9525 169.5 85.6115 169.086C85.286 168.678 84.8686 168.352 84.3934 168.136C83.6596 167.792 82.8204 167.748 82.0548 168.014C81.5909 168.158 81.1715 168.418 80.8367 168.769C80.718 168.888 80.6119 169.019 80.52 169.159C80.621 169.03 80.7309 168.908 80.8489 168.794C81.1928 168.459 81.6098 168.209 82.067 168.063C82.8219 167.825 83.6384 167.877 84.3569 168.209C85.2579 168.792 86.0023 169.586 86.525 170.523C88.2666 172.924 89.5092 175.649 90.1792 178.538C90.3697 179.409 90.4959 180.292 90.5568 181.181C90.642 182.107 90.6298 183.057 90.6298 184.044C90.6298 186.005 90.6298 188.088 90.6298 190.268C90.6298 207.747 90.6298 231.962 90.6298 258.905L90.776 258.759H76.6832L76.8172 258.905C76.5127 233.326 76.2325 210.695 76.0376 194.348C76.0376 190.268 75.928 186.589 75.8915 183.386C75.8154 180.636 76.2576 177.897 77.1948 175.31C77.7904 173.678 78.5581 172.115 79.4847 170.645C79.8014 170.146 80.0572 169.768 80.2277 169.525L80.4957 169.171Z" fill="#263238"/>
<path d="M76.0137 227.626C76.0137 227.699 79.1928 227.76 83.1149 227.76C87.037 227.76 90.2161 227.699 90.2161 227.626C90.2161 227.552 87.037 227.479 83.1149 227.479C79.1928 227.479 76.0137 227.54 76.0137 227.626Z" fill="#263238"/>
<path d="M76.0137 236.42C76.0137 236.493 79.1928 236.554 83.1149 236.554C87.037 236.554 90.2161 236.554 90.2161 236.42C90.2161 236.286 87.037 236.274 83.1149 236.274C79.1928 236.274 76.0137 236.42 76.0137 236.42Z" fill="#263238"/>
<path d="M76.0137 183.398C76.0137 183.483 79.1928 183.544 83.1149 183.544C87.037 183.544 90.2161 183.544 90.2161 183.398C90.2161 183.252 87.037 183.264 83.1149 183.264C79.1928 183.264 76.0137 183.325 76.0137 183.398Z" fill="#263238"/>
<path d="M76.0137 192.241C76.0137 192.327 79.1928 192.388 83.1149 192.388C87.037 192.388 90.2161 192.327 90.2161 192.241C90.2161 192.156 87.037 192.107 83.1149 192.107C79.1928 192.107 76.0137 192.168 76.0137 192.241Z" fill="#263238"/>
<path d="M76.0137 201.096C76.0137 201.182 79.1928 201.243 83.1149 201.243C87.037 201.243 90.2161 201.182 90.2161 201.096C90.2161 201.011 87.037 200.963 83.1149 200.963C79.1928 200.963 76.0137 201.011 76.0137 201.096Z" fill="#263238"/>
<path d="M76.0137 209.927C76.0137 210.012 79.1928 210.073 83.1149 210.073C87.037 210.073 90.2161 210.012 90.2161 209.927C90.2161 209.842 87.037 209.793 83.1149 209.793C79.1928 209.793 76.0137 209.854 76.0137 209.927Z" fill="#263238"/>
<path d="M76.0137 218.782C76.0137 218.855 79.1928 218.916 83.1149 218.916C87.037 218.916 90.2161 218.855 90.2161 218.782C90.2161 218.709 87.037 218.636 83.1149 218.636C79.1928 218.636 76.0137 218.697 76.0137 218.782Z" fill="#263238"/>
<path d="M29.2022 169.488C29.4845 169.115 29.8468 168.811 30.2623 168.597C30.6778 168.382 31.136 168.264 31.6033 168.25C32.0706 168.236 32.5351 168.327 32.9627 168.516C33.3903 168.705 33.7702 168.987 34.0744 169.342C37.3559 173.173 39.2031 178.026 39.2998 183.069V259.246H25.3897C25.3897 259.246 24.5127 193.106 24.5127 183.069C24.5714 178.155 26.2163 173.391 29.2022 169.488Z" fill="#F36D45"/>
<path d="M29.2042 169.488C29.2042 169.488 28.8022 169.975 28.1445 170.962C27.2012 172.421 26.4172 173.976 25.8058 175.603C24.8392 178.199 24.3763 180.957 24.4416 183.727C24.4416 186.955 24.5147 190.633 24.5512 194.689C24.7218 211.011 24.9654 233.667 25.2455 259.246V259.38H39.5089V259.246C39.5089 232.29 39.5089 208.088 39.5089 190.609C39.5089 188.429 39.5089 186.346 39.5089 184.372C39.5089 183.398 39.5089 182.436 39.4358 181.51C39.3669 180.612 39.2326 179.721 39.0338 178.843C38.3681 175.941 37.1254 173.203 35.3797 170.791C35.0264 170.292 34.6732 169.841 34.3322 169.415C34.0029 169.01 33.5865 168.686 33.1141 168.465C32.3773 168.133 31.5428 168.089 30.7755 168.343C30.3125 168.495 29.8941 168.758 29.5574 169.11C29.4377 169.224 29.3314 169.35 29.2407 169.488C29.2407 169.488 29.3382 169.354 29.5696 169.135C29.9103 168.796 30.3283 168.545 30.7876 168.404C31.5418 168.16 32.3606 168.212 33.0776 168.55C33.9755 169.131 34.7194 169.921 35.2457 170.852C36.9871 173.257 38.2295 175.986 38.8998 178.879C39.0903 179.75 39.2165 180.633 39.2774 181.522C39.3627 182.436 39.3505 183.398 39.3505 184.372C39.3505 186.346 39.3505 188.429 39.3505 190.609C39.3505 208.088 39.3505 232.29 39.3505 259.246L39.4967 259.1H25.3917L25.5257 259.234C25.2212 233.728 24.941 211.023 24.7461 194.677C24.6852 190.597 24.6365 186.918 24.6 183.715C24.5241 180.961 24.9662 178.217 25.9033 175.627C26.5019 174.004 27.2694 172.449 28.1932 170.986C28.5099 170.475 28.7657 170.109 28.9362 169.853C29.1067 169.598 29.2042 169.488 29.2042 169.488Z" fill="#263238"/>
<path d="M24.7476 183.727C24.7476 183.812 27.9267 183.873 31.8488 183.873C35.7709 183.873 38.95 183.812 38.95 183.727C38.95 183.642 35.7709 183.581 31.8488 183.581C27.9267 183.581 24.7476 183.654 24.7476 183.727Z" fill="#263238"/>
<path d="M24.7476 192.57C24.7476 192.655 27.9267 192.716 31.8488 192.716C35.7709 192.716 38.95 192.655 38.95 192.57C38.95 192.485 35.7709 192.424 31.8488 192.424C27.9267 192.424 24.7476 192.497 24.7476 192.57Z" fill="#263238"/>
<path d="M24.7476 201.413C24.7476 201.499 27.9267 201.559 31.8488 201.559C35.7709 201.559 38.95 201.499 38.95 201.413C38.95 201.328 35.7709 201.267 31.8488 201.267C27.9267 201.267 24.7476 201.34 24.7476 201.413Z" fill="#263238"/>
<path d="M24.7476 210.256C24.7476 210.341 27.9267 210.402 31.8488 210.402C35.7709 210.402 38.95 210.341 38.95 210.256C38.95 210.171 35.7709 210.11 31.8488 210.11C27.9267 210.11 24.7476 210.183 24.7476 210.256Z" fill="#263238"/>
<path d="M24.7476 219.099C24.7476 219.184 27.9267 219.245 31.8488 219.245C35.7709 219.245 38.95 219.245 38.95 219.099C38.95 218.953 35.7709 218.953 31.8488 218.953C27.9267 218.953 24.7476 219.026 24.7476 219.099Z" fill="#263238"/>
<path d="M24.7476 227.894C24.7476 227.979 27.9267 228.04 31.8488 228.04C35.7709 228.04 38.95 227.979 38.95 227.894C38.95 227.808 35.7709 227.747 31.8488 227.747C27.9267 227.747 24.7476 227.894 24.7476 227.894Z" fill="#263238"/>
<path d="M24.7476 236.785C24.7476 236.87 27.9267 236.931 31.8488 236.931C35.7709 236.931 38.95 236.87 38.95 236.785C38.95 236.7 35.7709 236.639 31.8488 236.639C27.9267 236.639 24.7476 236.712 24.7476 236.785Z" fill="#263238"/>
<path d="M52.3109 143.848C53.8434 142.779 55.6901 142.254 57.5559 142.358C59.4217 142.462 61.1988 143.188 62.6034 144.421C71.4464 151.729 75.807 162.764 75.807 171.461V269.879H40.9709C40.9709 269.879 38.8027 185.53 38.8027 171.461C38.8027 162.935 44.5641 149.707 52.3109 143.848Z" fill="#D6E6EE"/>
<path d="M52.3093 143.848L51.7978 144.25C51.2943 144.631 50.8105 145.038 50.3483 145.468C48.556 147.17 46.9735 149.079 45.6344 151.156C43.4958 154.454 41.7773 158.006 40.5186 161.729C39.7228 164.061 39.1717 166.469 38.8743 168.915C38.8743 169.244 38.789 169.573 38.7646 169.902V170.913C38.7646 171.583 38.7646 172.265 38.7646 172.959C38.7646 174.336 38.7646 175.761 38.7646 177.223C39.1301 200.512 39.9218 233.021 40.8475 269.794V269.928H75.9516V269.794C75.9516 250.098 75.9516 231.462 75.9516 214.604C75.9516 206.163 75.9516 198.173 75.9516 190.706V179.914C75.9516 178.185 75.9516 176.492 75.9516 174.835C75.9516 173.179 75.9516 171.571 75.9516 169.963C75.7696 166.955 75.1838 163.984 74.2098 161.132C71.9852 154.492 67.9475 148.606 62.5531 144.14C61.3153 143.174 59.8528 142.537 58.3021 142.289C57.1672 142.123 56.0101 142.193 54.9038 142.496C54.2311 142.688 53.5877 142.971 52.9914 143.336L52.4068 143.751C52.4068 143.751 52.6138 143.629 53.0036 143.361C54.5925 142.414 56.4666 142.065 58.2899 142.374C59.8223 142.622 61.2652 143.259 62.48 144.226C67.8263 148.736 71.8048 154.651 73.9662 161.303C74.9319 164.139 75.5096 167.093 75.6837 170.085V269.892L75.8298 269.745H40.9693L41.1155 269.879C40.1776 233.058 39.3493 200.56 38.9474 177.308C38.9474 175.858 38.9474 174.433 38.9474 173.057C38.9474 172.363 38.9474 171.68 38.9474 171.011C38.9474 170.682 38.9474 170.341 38.9474 170.012C38.9474 169.683 38.9474 169.354 39.0448 169.037C39.3416 166.601 39.8844 164.202 40.6648 161.875C41.9016 158.158 43.5999 154.61 45.7197 151.315C47.049 149.237 48.6145 147.32 50.3848 145.602C50.8416 145.17 51.3214 144.764 51.8221 144.384L52.3093 143.848Z" fill="#263238"/>
<path d="M59.3506 145.152C59.3506 145.152 72.7491 155.919 72.8587 170.353V208.831H67.0974L67.4506 175.31C67.4506 175.31 68.1814 168.952 64.71 157.758C63.3497 153.387 61.5542 149.164 59.3506 145.152Z" fill="white"/>
<path d="M39.4707 175.31C39.4707 175.396 47.4611 175.457 57.3151 175.457C67.1691 175.457 75.1838 175.396 75.1838 175.31C75.1838 175.225 67.1934 175.176 57.3394 175.176C47.4854 175.176 39.4707 175.237 39.4707 175.31Z" fill="#263238"/>
<path d="M39.4707 188.709C39.4707 188.782 47.4611 188.855 57.3151 188.855C67.1691 188.855 75.1838 188.782 75.1838 188.709C75.1838 188.636 67.1934 188.563 57.3394 188.563C47.4854 188.563 39.4707 188.624 39.4707 188.709Z" fill="#263238"/>
<path d="M39.4707 202.095C39.4707 202.168 47.4611 202.241 57.3151 202.241C67.1691 202.241 75.1838 202.168 75.1838 202.095C75.1838 202.022 67.1934 201.949 57.3394 201.949C47.4854 201.949 39.4707 202.01 39.4707 202.095Z" fill="#263238"/>
<path d="M39.4707 215.481C39.4707 215.567 47.4611 215.628 57.3151 215.628C67.1691 215.628 75.1838 215.567 75.1838 215.481C75.1838 215.396 67.1934 215.335 57.3394 215.335C47.4854 215.335 39.4707 215.408 39.4707 215.481Z" fill="#263238"/>
<path d="M80.1068 274.837H89.2422V268.905H80.1068V274.837Z" fill="#455A64"/>
<path d="M91.8468 278.089C91.8562 277.558 91.7462 277.032 91.5248 276.549C91.3035 276.066 90.9764 275.639 90.5679 275.3L89.2402 274.021L80.0561 274.179L79.2522 274.898C78.8502 275.212 78.515 275.603 78.2661 276.049C78.0172 276.494 77.8597 276.985 77.8027 277.492V277.626L91.8468 278.089Z" fill="#455A64"/>
<path d="M77.5002 279.186H92.0315C92.4553 279.186 92.7988 278.842 92.7988 278.418V278.333C92.7988 277.909 92.4553 277.566 92.0315 277.566H77.5002C77.0764 277.566 76.7328 277.909 76.7328 278.333V278.418C76.7328 278.842 77.0764 279.186 77.5002 279.186Z" fill="#455A64"/>
<path d="M100.559 267.723V250.524L77.3182 227.735L67.4155 196.711V272.34L100.559 267.723Z" fill="#F5F5F5"/>
<path d="M100.557 262.047L67.4258 266.457V272.34L100.557 267.724V262.047Z" fill="#F36D45"/>
<path d="M100.558 267.724L99.9616 267.797L98.232 268.028L91.6058 268.917L67.4032 272.23L67.525 272.34C67.525 255.835 67.525 233.984 67.525 210.098V196.699H67.2449C70.8016 207.832 74.1512 218.295 77.1598 227.723L100.437 250.488V250.427C100.437 255.86 100.437 260.172 100.437 263.083C100.437 264.557 100.437 265.677 100.437 266.457V267.675C100.442 267.582 100.442 267.488 100.437 267.395C100.437 267.188 100.437 266.908 100.437 266.53C100.437 265.763 100.437 264.642 100.437 263.18C100.437 260.233 100.437 255.872 100.437 250.476L77.2938 227.638C74.2974 218.21 70.9599 207.747 67.4154 196.614L67.1353 195.737V210.049C67.1353 233.935 67.1353 255.787 67.1353 272.291V272.413H67.2692L91.5084 268.99L98.3294 268.089L100.035 267.845L100.558 267.724Z" fill="#263238"/>
<path d="M26.9999 274.837H36.1353V268.905H26.9999V274.837Z" fill="#455A64"/>
<path d="M38.7425 278.089C38.7594 277.563 38.6588 277.039 38.4481 276.557C38.2375 276.075 37.9219 275.645 37.5245 275.3L36.1968 274.021L27.0493 274.13L26.2454 274.849C25.8434 275.163 25.5081 275.555 25.2592 276C25.0104 276.446 24.8528 276.936 24.7959 277.443V277.577L38.7425 278.089Z" fill="#455A64"/>
<path d="M24.3781 279.186H38.9094C39.3332 279.186 39.6768 278.842 39.6768 278.418V278.333C39.6768 277.909 39.3332 277.566 38.9094 277.566H24.3781C23.9543 277.566 23.6107 277.909 23.6107 278.333V278.418C23.6107 278.842 23.9543 279.186 24.3781 279.186Z" fill="#455A64"/>
<path d="M34.4673 260.232C34.4673 260.387 34.5133 260.538 34.5996 260.667C34.6858 260.795 34.8082 260.895 34.9514 260.954C35.0946 261.012 35.2519 261.027 35.4035 260.996C35.555 260.965 35.6939 260.889 35.8024 260.779C35.9109 260.669 35.9842 260.529 36.0129 260.377C36.0416 260.225 36.0244 260.068 35.9635 259.926C35.9026 259.783 35.8008 259.662 35.671 259.578C35.5412 259.494 35.3893 259.45 35.2347 259.453C35.03 259.456 34.8349 259.54 34.6913 259.685C34.5477 259.831 34.4673 260.028 34.4673 260.232Z" fill="#EBEBEB"/>
<path d="M46.6472 187.698C46.6472 182.972 49.3025 178.794 51.9457 174.701C52.7372 173.394 53.7707 172.248 54.9908 171.327C55.5928 170.896 56.3148 170.664 57.0554 170.664C57.796 170.664 58.518 170.896 59.12 171.327C60.3213 172.253 61.3413 173.393 62.1286 174.689C64.7595 178.782 67.3662 182.96 67.4149 187.686C67.4149 193.228 67.4149 272.377 67.4149 272.377H46.6472C46.6472 272.377 46.5863 193.191 46.6472 187.698Z" fill="#F5F5F5"/>
<path d="M51.226 175.517C52.1163 173.951 53.294 172.567 54.6974 171.437C55.3718 170.919 56.1982 170.639 57.0483 170.639C57.8984 170.639 58.7247 170.919 59.3991 171.437C60.7882 172.571 61.9532 173.955 62.834 175.517C64.5582 178.26 65.9447 181.2 66.9632 184.275L47.1699 184.214C48.1456 181.154 49.5087 178.232 51.226 175.517Z" fill="#F36D45"/>
<path d="M47.1699 184.214C47.1699 184.287 51.6158 184.372 57.0848 184.385C62.5539 184.397 66.9997 184.385 67.0119 184.275C67.0241 184.165 62.566 184.117 57.0848 184.092C51.6036 184.068 47.1699 184.129 47.1699 184.214Z" fill="#263238"/>
<path d="M64.2217 182.485C64.2217 182.559 64.2438 182.632 64.2853 182.695C64.3268 182.757 64.3858 182.805 64.4548 182.834C64.5238 182.862 64.5997 182.87 64.6729 182.855C64.7462 182.841 64.8135 182.805 64.8663 182.752C64.9191 182.699 64.955 182.632 64.9696 182.558C64.9842 182.485 64.9767 182.409 64.9481 182.34C64.9195 182.271 64.8711 182.212 64.8091 182.171C64.747 182.129 64.674 182.107 64.5993 182.107C64.4991 182.107 64.4031 182.147 64.3323 182.218C64.2615 182.289 64.2217 182.385 64.2217 182.485Z" fill="#263238"/>
<path d="M60.6675 182.485C60.6675 182.585 60.7073 182.681 60.7781 182.752C60.8489 182.823 60.9449 182.862 61.0451 182.862C61.1452 182.862 61.2413 182.823 61.3121 182.752C61.3829 182.681 61.4227 182.585 61.4227 182.485C61.4227 182.385 61.3829 182.289 61.3121 182.218C61.2413 182.147 61.1452 182.107 61.0451 182.107C60.9449 182.107 60.8489 182.147 60.7781 182.218C60.7073 182.289 60.6675 182.385 60.6675 182.485Z" fill="#263238"/>
<path d="M57.0852 182.485C57.0835 182.534 57.0918 182.583 57.1094 182.628C57.127 182.674 57.1537 182.716 57.1878 182.751C57.2219 182.786 57.2627 182.814 57.3079 182.833C57.353 182.853 57.4016 182.862 57.4506 182.862C57.5507 182.862 57.6468 182.823 57.7176 182.752C57.7884 182.681 57.8282 182.585 57.8282 182.485C57.8282 182.385 57.7884 182.289 57.7176 182.218C57.6468 182.147 57.5507 182.107 57.4506 182.107C57.4016 182.107 57.353 182.117 57.3079 182.136C57.2627 182.155 57.2219 182.183 57.1878 182.218C57.1537 182.254 57.127 182.295 57.1094 182.341C57.0918 182.387 57.0835 182.436 57.0852 182.485Z" fill="#263238"/>
<path d="M53.8668 182.862C54.0754 182.862 54.2444 182.693 54.2444 182.485C54.2444 182.276 54.0754 182.107 53.8668 182.107C53.6583 182.107 53.4893 182.276 53.4893 182.485C53.4893 182.693 53.6583 182.862 53.8668 182.862Z" fill="#263238"/>
<path d="M50.2868 182.862C50.4953 182.862 50.6644 182.693 50.6644 182.485C50.6644 182.276 50.4953 182.107 50.2868 182.107C50.0782 182.107 49.9092 182.276 49.9092 182.485C49.9092 182.693 50.0782 182.862 50.2868 182.862Z" fill="#263238"/>
<path d="M46.646 187.698C46.646 187.698 46.646 187.844 46.646 188.112C46.646 188.38 46.646 188.794 46.646 189.33C46.646 190.414 46.646 191.997 46.646 194.056C46.646 198.173 46.646 204.166 46.646 211.693C46.646 226.761 46.646 247.93 46.646 272.389V272.523H67.5599V261.779C67.5599 245.75 67.5599 230.488 67.5599 216.602C67.5599 209.659 67.5599 203.057 67.5599 196.882C67.5599 193.8 67.5599 190.792 67.5599 187.954C67.5015 185.163 66.7747 182.427 65.4405 179.975C64.8436 178.757 64.2224 177.685 63.5281 176.626C62.8338 175.566 62.237 174.531 61.5183 173.568C60.8451 172.629 60.0222 171.806 59.0823 171.132C58.6182 170.832 58.0921 170.641 57.5436 170.574C56.995 170.506 56.4383 170.564 55.9153 170.743C55.4202 170.914 54.9645 171.183 54.5755 171.534C54.1911 171.85 53.8289 172.192 53.4914 172.557C52.865 173.253 52.3024 174.003 51.8105 174.799C50.8483 176.309 49.9834 177.698 49.2892 178.989C48.1368 180.944 47.3138 183.076 46.8531 185.298C46.7922 185.688 46.7434 186.017 46.7191 186.309C46.6845 186.555 46.6641 186.804 46.6582 187.052C46.644 186.809 46.644 186.565 46.6582 186.321C46.6582 186.029 46.7434 185.688 46.8165 185.31C47.2823 183.105 48.1052 180.99 49.2526 179.05C49.9591 177.758 50.8239 176.382 51.7983 174.884C52.2873 174.097 52.8458 173.355 53.4671 172.667C53.8005 172.306 54.1586 171.968 54.5389 171.656C54.9181 171.323 55.3559 171.062 55.8301 170.889C56.3296 170.721 56.8606 170.667 57.3835 170.733C57.9065 170.798 58.408 170.981 58.8508 171.266C59.7862 171.945 60.6084 172.767 61.2869 173.702C61.9934 174.652 62.6146 175.7 63.2723 176.748C63.9301 177.795 64.5756 178.916 65.1603 180.085C66.4729 182.496 67.1911 185.185 67.2553 187.929C67.2553 190.792 67.2553 193.776 67.2553 196.857C67.2553 203.033 67.2553 209.635 67.2553 216.578C67.2553 230.463 67.2553 245.725 67.2553 261.755V272.352L67.4015 272.218H46.646L46.7922 272.352C46.7922 247.906 46.7922 226.736 46.7922 211.669C46.7922 204.154 46.7922 198.149 46.7922 194.032C46.7922 191.973 46.7922 190.377 46.7922 189.306C46.7922 188.77 46.7922 188.368 46.7922 188.088C46.7922 187.807 46.646 187.698 46.646 187.698Z" fill="#263238"/>
<path d="M57.3047 192.387C58.0069 192.387 58.7023 192.526 59.351 192.794C59.9998 193.063 60.5892 193.457 61.0858 193.954C61.5823 194.45 61.9762 195.04 62.2449 195.688C62.5136 196.337 62.6519 197.032 62.6519 197.735H51.9453C51.9453 197.031 52.084 196.335 52.3535 195.686C52.623 195.036 53.018 194.446 53.5158 193.949C54.0136 193.453 54.6045 193.059 55.2547 192.791C55.9048 192.523 56.6015 192.386 57.3047 192.387Z" fill="#455A64"/>
<path d="M68.2399 277.992C68.2367 277.226 68.053 276.472 67.7038 275.79C67.3546 275.109 66.8498 274.519 66.2301 274.07L63.9037 272.34H49.1897L47.1677 273.936C46.5671 274.392 46.0806 274.982 45.7467 275.658C45.4127 276.334 45.2404 277.079 45.2432 277.833V278.053L68.2399 277.992Z" fill="#E0E0E0"/>
<path d="M68.2423 277.992C68.0926 277.973 67.9413 277.973 67.7916 277.992H66.4761H61.6039H45.2334L45.3796 278.138C45.3404 277.088 45.6534 276.054 46.2687 275.202C46.6703 274.669 47.1557 274.204 47.706 273.826L49.2651 272.608H49.1799H63.8939L66.4031 274.459C67.0105 274.943 67.4982 275.559 67.8282 276.262C68.0967 276.871 68.2535 277.523 68.291 278.187C68.307 278.012 68.307 277.837 68.291 277.663C68.2501 277.167 68.1266 276.681 67.9256 276.226C67.6142 275.43 67.1073 274.727 66.4518 274.179L64.0157 272.291H49.3017L47.7426 273.509C47.1741 273.911 46.6691 274.395 46.2444 274.947C45.5981 275.85 45.2684 276.942 45.3065 278.053V278.199H45.4405H61.811H66.6832H67.9987L68.2423 277.992Z" fill="#263238"/>
<path d="M44.6729 280.635H68.5223C69.2152 280.635 69.7769 280.073 69.7769 279.38V279.234C69.7769 278.541 69.2152 277.98 68.5223 277.98H44.6729C43.98 277.98 43.4183 278.541 43.4183 279.234V279.38C43.4183 280.073 43.98 280.635 44.6729 280.635Z" fill="#F36D45"/>
<path d="M56.9121 273.85H70.3106V260.622C70.3106 258.904 69.6279 257.255 68.4127 256.04C67.1974 254.825 65.5492 254.142 63.8306 254.142H63.4408C62.5858 254.136 61.7379 254.299 60.9461 254.621C60.1543 254.944 59.4341 255.42 58.8272 256.023C58.2204 256.625 57.7387 257.342 57.41 258.131C57.0813 258.92 56.9121 259.767 56.9121 260.622V273.85Z" fill="#EBEBEB"/>
<path d="M56.914 273.85C56.9191 273.794 56.9191 273.736 56.914 273.68V273.217C56.914 272.791 56.914 272.194 56.914 271.438C56.914 269.879 56.914 267.675 56.914 264.958C56.914 263.594 56.914 262.108 56.914 260.5C56.9562 259.2 57.3988 257.944 58.1814 256.904C58.964 255.864 60.0485 255.091 61.2868 254.69C62.1883 254.39 63.1418 254.278 64.0883 254.361C65.0876 254.406 66.0622 254.686 66.9324 255.179C67.8025 255.672 68.5434 256.365 69.0945 257.2C69.5086 257.84 69.8055 258.55 69.9715 259.295C70.0957 260.035 70.1406 260.786 70.1055 261.536C70.1055 263.034 70.1055 264.508 70.1055 265.933C70.1055 268.771 70.1055 271.426 70.1055 273.85L70.2273 273.728L60.5682 273.789H57.8519H60.5438L70.2882 273.85H70.3126V273.728C70.3126 271.292 70.3126 268.649 70.3126 265.811C70.3126 264.386 70.3126 262.912 70.3126 261.414C70.3478 260.644 70.2987 259.872 70.1664 259.112C69.999 258.331 69.6894 257.588 69.2529 256.919C68.6895 256.043 67.9268 255.313 67.0271 254.788C66.1274 254.263 65.1162 253.958 64.0762 253.899C63.0927 253.815 62.1024 253.931 61.165 254.24C60.2572 254.546 59.4262 255.044 58.7289 255.701C58.0922 256.304 57.5831 257.029 57.2316 257.833C56.8801 258.636 56.6934 259.502 56.6826 260.379C56.6826 261.999 56.6826 263.509 56.6826 264.885C56.6826 267.614 56.6826 269.831 56.6826 271.378C56.6826 272.121 56.6826 272.717 56.6826 273.132C56.6826 273.314 56.6826 273.46 56.6826 273.582C56.7714 273.661 56.8492 273.751 56.914 273.85Z" fill="#263238"/>
<path d="M13.4785 267.723V250.524L36.7188 227.735L46.6216 196.711V272.34L13.4785 267.723Z" fill="#F5F5F5"/>
<path d="M46.6459 272.34L46.6216 267.188L13.4785 262.998V267.724L46.6459 272.34Z" fill="#F36D45"/>
<path d="M13.4793 267.724L14.0518 267.821L15.7693 268.065L22.3589 269.015L46.6102 272.437H46.732V272.316C46.732 255.811 46.732 233.959 46.732 210.073V195.786L46.4519 196.663C42.8952 207.796 39.5699 218.259 36.5613 227.686L13.4184 250.476C13.4184 255.921 13.4184 260.22 13.4184 263.18C13.4184 264.642 13.4184 265.763 13.4184 266.53C13.4184 266.908 13.4184 267.188 13.4184 267.395C13.4133 267.488 13.4133 267.582 13.4184 267.675C13.4184 267.675 13.4184 267.577 13.4184 267.37V266.506C13.4184 265.726 13.4184 264.605 13.4184 263.132C13.4184 260.196 13.4184 255.909 13.4184 250.476V250.537L36.6831 227.772C39.6917 218.344 43.0413 207.881 46.598 196.748H46.3179V210.147C46.3179 234.032 46.3179 255.884 46.3179 272.389L46.4397 272.279L22.2371 268.966L15.8058 268.089L14.0762 267.858L13.4793 267.724Z" fill="#263238"/>
<path d="M41.7627 271.536V259.453C41.7627 259.453 42.1525 255.214 45.2463 254.142V204.507L46.6227 196.711V272.449L41.7627 271.536Z" fill="black"/>
<path d="M43.418 273.85H56.8165V260.622C56.8165 259.771 56.6489 258.929 56.3232 258.142C55.9976 257.356 55.5203 256.642 54.9185 256.04C54.3168 255.438 53.6025 254.961 52.8163 254.635C52.0301 254.31 51.1874 254.142 50.3365 254.142H49.9467C48.2281 254.142 46.5799 254.825 45.3646 256.04C44.1494 257.255 43.4667 258.904 43.4667 260.622L43.418 273.85Z" fill="#EBEBEB"/>
<path d="M43.421 273.85C43.421 273.85 43.421 273.789 43.421 273.68V273.217C43.421 272.79 43.421 272.194 43.421 271.438C43.421 269.879 43.421 267.675 43.421 264.958C43.421 263.594 43.421 262.108 43.421 260.5C43.471 259.193 43.9238 257.933 44.7175 256.893C45.5112 255.853 46.6069 255.084 47.8547 254.69C48.7562 254.39 49.7097 254.278 50.6562 254.361C51.6521 254.422 52.6197 254.716 53.4809 255.219C54.3421 255.723 55.0727 256.422 55.6137 257.26C56.029 257.899 56.3222 258.61 56.4785 259.355C56.6068 260.095 56.6558 260.846 56.6247 261.597V265.994C56.6247 268.832 56.6247 271.487 56.6247 273.911L56.7465 273.789L47.0874 273.85H44.3711H47.063L56.8074 273.911H56.917V273.789C56.917 271.353 56.917 268.71 56.917 265.872C56.917 264.447 56.917 262.973 56.917 261.475C56.942 260.704 56.8889 259.933 56.7587 259.173C56.5956 258.393 56.29 257.649 55.8573 256.98C55.2939 256.104 54.5312 255.373 53.6315 254.848C52.7318 254.323 51.7206 254.019 50.6806 253.959C49.6931 253.874 48.6985 253.99 47.7573 254.3C46.8501 254.608 46.0194 255.106 45.3212 255.762C44.685 256.366 44.1754 257.091 43.822 257.894C43.4686 258.697 43.2784 259.562 43.2627 260.439C43.2627 262.059 43.2627 263.57 43.2627 264.946C43.2627 267.675 43.2627 269.891 43.2627 271.438C43.2627 272.181 43.2627 272.778 43.2627 273.192V273.643C43.3014 273.722 43.3552 273.792 43.421 273.85Z" fill="#263238"/>
<path d="M46.8418 213.8C46.8418 213.886 51.4095 213.947 57.0368 213.947C62.6642 213.947 67.2197 213.886 67.2197 213.8C67.2197 213.715 62.6642 213.654 57.0368 213.654C51.4095 213.654 46.8418 213.715 46.8418 213.8Z" fill="#263238"/>
<path d="M46.8418 235.738C46.8418 235.823 51.4095 235.884 57.0368 235.884C62.6642 235.884 67.2197 235.823 67.2197 235.738C67.2197 235.652 62.6642 235.604 57.0368 235.604C51.4095 235.604 46.8418 235.665 46.8418 235.738Z" fill="#263238"/>
<path d="M56.5969 192.436L61.0428 197.735H57.9855L54.4775 193.216C55.1324 192.833 55.85 192.569 56.5969 192.436Z" fill="white"/>
<path d="M26.1351 416.483C23.8976 409.123 23.7216 401.285 25.6265 393.831C27.5315 386.377 31.4435 379.596 36.9322 374.233C42.421 368.871 49.2738 365.135 56.7369 363.437C64.2 361.739 71.9841 362.144 79.233 364.608C79.0884 356.419 81.1727 348.347 85.2605 341.263C89.3482 334.18 95.2838 328.357 102.425 324.422C109.566 320.488 117.641 318.592 125.776 318.941C133.911 319.29 141.796 321.87 148.578 326.402C150.405 322.621 152.971 319.25 156.122 316.489C159.274 313.728 162.946 311.634 166.92 310.332C170.893 309.03 175.087 308.548 179.251 308.913C183.414 309.278 187.462 310.483 191.152 312.457C194.842 314.43 198.098 317.132 200.727 320.4C203.356 323.668 205.303 327.435 206.452 331.476C207.601 335.518 207.929 339.751 207.415 343.923C206.901 348.095 205.557 352.12 203.462 355.757C209.423 354.265 215.702 354.714 221.393 357.041C227.084 359.367 231.893 363.451 235.129 368.703C238.365 373.956 239.86 380.106 239.398 386.267C238.936 392.429 236.541 398.284 232.559 402.989C256.124 392.517 287.138 413.548 286.354 439.442L0 438.61C2.04725 434.754 9.10374 417.184 26.1351 416.483Z" fill="#EDF8FD"/>
<path d="M378.009 91.0314L340.136 57L303 91.0314H378.009Z" fill="#EAF2F7"/>
<path d="M132.484 58.8487L113.974 42.2211L95.814 58.8487H132.484Z" fill="white"/>
<path d="M153.523 200.548C153.212 200.804 152.881 201.036 152.535 201.243L149.606 203.074L147.482 204.374C146.731 204.868 145.944 205.472 145.084 206.095C143.095 207.443 141.176 208.891 139.335 210.434L136.113 213.125C135.014 214.059 133.971 215.175 132.818 216.237C130.492 218.361 128.314 220.906 125.971 223.56C121.08 229.435 116.787 235.782 113.155 242.508C109.646 249.305 106.813 256.431 104.697 263.782C103.798 267.001 103.065 270.264 102.5 273.558C102.262 275.114 101.933 276.597 101.768 278.043C101.603 279.49 101.493 280.881 101.347 282.199C100.999 284.854 101.072 287.27 100.981 289.394C100.981 290.456 100.981 291.445 100.981 292.36C100.981 293.275 100.981 294.081 101.109 294.831C101.109 296.259 101.2 297.395 101.237 298.273C101.269 298.675 101.269 299.079 101.237 299.482C101.131 299.093 101.07 298.694 101.054 298.292C101.054 297.413 100.871 296.278 100.743 294.85C100.743 294.099 100.615 293.257 100.541 292.36C100.468 291.463 100.541 290.529 100.541 289.394C100.489 286.951 100.569 284.506 100.779 282.071C100.889 280.735 101.017 279.325 101.127 277.879C101.237 276.432 101.585 274.913 101.823 273.357C102.354 270.033 103.057 266.74 103.928 263.489C107.917 248.548 115.206 234.691 125.257 222.938C127.655 220.32 129.87 217.757 132.232 215.615C133.403 214.553 134.465 213.454 135.6 212.521L138.877 209.866C140.753 208.341 142.708 206.917 144.736 205.601C145.615 204.996 146.42 204.411 147.207 203.935L149.386 202.708L152.407 201.024C152.758 200.82 153.133 200.66 153.523 200.548Z" fill="white"/>
<path d="M250.032 419.34C229.274 419.664 208.785 414.619 190.551 404.694C173.275 395.241 158.969 381.169 149.231 364.052C139.428 346.035 134.292 325.85 134.292 305.339C134.292 284.828 139.428 264.644 149.231 246.627C158.981 229.519 173.285 215.45 190.551 205.984C208.785 196.059 229.274 191.014 250.032 191.338C270.79 191.012 291.28 196.058 309.513 205.984C326.75 215.477 341.016 229.565 350.724 246.682C360.543 264.693 365.688 284.88 365.688 305.394C365.688 325.908 360.543 346.095 350.724 364.107C340.986 381.224 326.679 395.295 309.404 404.749C291.197 414.638 270.748 419.664 250.032 419.34ZM250.032 359.859C258.29 359.959 266.394 357.629 273.338 353.159C280.461 348.454 286.159 341.888 289.815 334.174C293.87 325.111 295.967 315.295 295.967 305.367C295.967 295.438 293.87 285.622 289.815 276.56C286.154 268.844 280.457 262.274 273.338 257.557C266.353 253.188 258.28 250.872 250.041 250.872C241.803 250.872 233.73 253.188 226.745 257.557C219.627 262.275 213.93 268.845 210.268 276.56C206.213 285.622 204.116 295.438 204.116 305.367C204.116 315.295 206.213 325.111 210.268 334.174C213.925 341.887 219.623 348.452 226.745 353.159C233.683 357.626 241.781 359.956 250.032 359.859Z" fill="#263238"/>
<path d="M250.075 423.659C226.361 423.659 205.069 418.411 186.2 407.915C167.646 397.729 152.288 382.587 141.841 364.178C131.125 345.516 125.773 324.451 125.785 300.98C125.797 277.51 131.149 256.45 141.841 237.801C152.288 219.392 167.646 204.25 186.2 194.064C205.081 183.568 226.373 178.32 250.075 178.32C273.777 178.32 295.069 183.568 313.95 194.064C332.504 204.25 347.862 219.392 358.309 237.801C369.161 257.067 374.702 278.87 374.365 300.98C374.365 324.451 369.013 345.516 358.309 364.178C347.862 382.587 332.504 397.729 313.95 407.915C295.081 418.399 273.789 423.647 250.075 423.659ZM250.075 359.583C258.936 359.69 267.634 357.188 275.083 352.388C282.762 347.32 288.91 340.248 292.86 331.938C297.217 322.183 299.468 311.619 299.468 300.935C299.468 290.25 297.217 279.686 292.86 269.931C288.91 261.621 282.762 254.549 275.083 249.481C267.59 244.769 258.918 242.269 250.066 242.269C241.214 242.269 232.542 244.769 225.049 249.481C217.379 254.56 211.234 261.629 207.272 269.931C202.915 279.686 200.664 290.25 200.664 300.935C200.664 311.619 202.915 322.183 207.272 331.938C211.205 340.252 217.325 347.339 224.975 352.443C232.454 357.254 241.184 359.756 250.075 359.638V359.583Z" fill="#282A37"/>
<path d="M413.552 214.002C413.507 210.041 414.636 206.156 416.797 202.836C418.958 199.517 422.054 196.912 425.694 195.351C429.334 193.789 433.355 193.341 437.249 194.063C441.144 194.784 444.737 196.644 447.576 199.406C450.415 202.168 452.371 205.709 453.199 209.582C454.027 213.455 453.689 217.487 452.228 221.169C450.767 224.85 448.248 228.016 444.989 230.267C441.73 232.518 437.877 233.753 433.917 233.816C428.591 233.881 423.457 231.832 419.639 228.118C415.822 224.403 413.633 219.327 413.552 214.002ZM443.18 213.527C443.142 211.632 442.542 209.791 441.459 208.237C440.375 206.683 438.854 205.484 437.09 204.793C435.326 204.102 433.396 203.95 431.545 204.355C429.694 204.76 428.004 205.704 426.689 207.068C425.374 208.433 424.493 210.157 424.157 212.021C423.821 213.886 424.045 215.809 424.801 217.547C425.557 219.284 426.811 220.759 428.404 221.785C429.998 222.81 431.859 223.34 433.754 223.309C436.301 223.259 438.724 222.202 440.491 220.368C442.258 218.534 443.225 216.073 443.18 213.527Z" fill="#F36C46"/>
<path d="M413.551 214.001C413.459 208.675 415.483 203.53 419.181 199.694C422.878 195.859 427.945 193.647 433.272 193.543L433.44 204.05C430.92 204.141 428.536 205.216 426.8 207.045C425.064 208.874 424.114 211.311 424.155 213.833C424.196 216.354 425.224 218.759 427.019 220.531C428.813 222.303 431.231 223.3 433.753 223.309L433.915 233.816C428.589 233.884 423.452 231.836 419.634 228.121C415.816 224.406 413.628 219.328 413.551 214.001Z" fill="#728B91"/>
<path d="M431.472 191.925C434.521 191.847 437.556 192.38 440.397 193.491C443.238 194.602 445.828 196.269 448.016 198.395C450.204 200.521 451.946 203.062 453.138 205.87C454.331 208.677 454.951 211.695 454.962 214.746L442.723 214.939C442.623 208.726 437.897 204.82 431.715 204.938L431.472 191.925Z" fill="#97BEC7"/>
<path d="M250.076 424.574C226.276 424.574 204.691 419.247 185.761 408.702C167.062 398.427 151.58 383.166 141.036 364.617C130.427 345.084 124.87 323.209 124.87 300.98C124.87 278.752 130.427 256.876 141.036 237.343C151.593 218.804 167.072 203.547 185.761 193.259C204.691 182.732 226.331 177.404 250.076 177.404C273.82 177.404 295.46 182.732 314.39 193.259C333.074 203.547 348.547 218.805 359.097 237.343C369.717 256.873 375.281 278.75 375.281 300.98C375.281 323.211 369.717 345.088 359.097 364.617C348.558 383.164 333.082 398.424 314.39 408.702C295.46 419.247 273.82 424.574 250.076 424.574ZM250.076 179.253C226.642 179.253 205.295 184.508 186.64 194.888C168.274 205.024 153.068 220.04 142.702 238.277C132.227 257.529 126.73 279.094 126.71 301.012C126.691 322.93 132.15 344.505 142.592 363.775C152.958 382.012 168.164 397.028 186.53 407.164C205.186 417.544 226.532 422.799 249.966 422.799C273.399 422.799 294.728 417.544 313.383 407.164C331.825 397.061 347.104 382.041 357.523 363.775C367.975 344.518 373.449 322.955 373.449 301.044C373.449 279.134 367.975 257.571 357.523 238.314C347.134 220.062 331.895 205.044 313.493 194.925C294.838 184.489 273.509 179.235 250.076 179.235V179.253ZM250.076 360.498C241.037 360.599 232.165 358.053 224.555 353.175C216.752 348.002 210.501 340.808 206.467 332.359C202.038 322.481 199.748 311.778 199.748 300.953C199.748 290.127 202.038 279.424 206.467 269.546C210.501 261.098 216.752 253.904 224.555 248.731C232.195 243.922 241.039 241.37 250.066 241.37C259.094 241.37 267.938 243.922 275.578 248.731C283.39 253.898 289.649 261.094 293.684 269.546C298.105 279.426 300.391 290.129 300.391 300.953C300.391 311.777 298.105 322.479 293.684 332.359C289.649 340.812 283.39 348.007 275.578 353.175C267.981 358.075 259.115 360.64 250.076 360.553V360.498ZM250.076 243.183C241.387 243.096 232.864 245.56 225.562 250.268C218.019 255.271 211.981 262.232 208.096 270.407C203.797 280.036 201.575 290.463 201.575 301.008C201.575 311.553 203.797 321.98 208.096 331.609C211.981 339.783 218.019 346.745 225.562 351.747C232.909 356.353 241.404 358.795 250.076 358.795C258.747 358.795 267.242 356.353 274.589 351.747C282.126 346.743 288.157 339.781 292.036 331.609C296.336 321.98 298.558 311.553 298.558 301.008C298.558 290.463 296.336 280.036 292.036 270.407C288.153 262.237 282.122 255.277 274.589 250.268C267.28 245.581 258.758 243.137 250.076 243.238V243.183Z" fill="#263238"/>
<path d="M331.542 127.498C331.417 123.235 332.44 119.016 334.504 115.284C336.567 111.551 339.596 108.442 343.273 106.281C346.951 104.12 351.141 102.987 355.406 103C359.671 103.013 363.854 104.172 367.518 106.356C371.181 108.54 374.191 111.668 376.231 115.413C378.272 119.159 379.268 123.384 379.117 127.646C378.965 131.908 377.671 136.052 375.369 139.643C373.068 143.233 369.843 146.14 366.034 148.058C366.034 150.877 366.217 154.062 366.217 154.062L345.383 154.667C345.383 154.667 345.163 151.298 345.035 148.296C341.092 146.403 337.747 143.461 335.367 139.792C332.987 136.124 331.664 131.87 331.542 127.498Z" fill="#F36D45"/>
<path d="M348.515 154.501C348.515 154.501 348.515 154.501 348.515 154.208V153.348C348.515 152.579 348.661 151.517 348.735 149.998C348.899 147.105 349.064 142.894 348.954 137.695C348.954 136.395 348.954 135.04 348.826 133.612C348.826 132.917 348.826 132.184 348.716 131.452C348.722 130.695 348.611 129.942 348.387 129.219C348.241 128.845 348.016 128.508 347.728 128.23C347.579 128.089 347.404 127.979 347.212 127.907C347.02 127.834 346.816 127.801 346.611 127.809C346.402 127.83 346.2 127.896 346.02 128.004C345.839 128.111 345.685 128.257 345.567 128.431C345.334 128.781 345.196 129.184 345.165 129.603C345.167 130.031 345.268 130.454 345.458 130.837C345.648 131.221 345.924 131.557 346.263 131.818C346.94 132.367 347.773 132.688 348.643 132.734C349.53 132.787 350.414 132.584 351.188 132.148C351.971 131.681 352.605 131.001 353.019 130.189C353.449 129.365 353.663 128.445 353.641 127.516C353.65 127.049 353.576 126.584 353.421 126.143C353.286 125.665 352.971 125.259 352.542 125.008C352.32 124.902 352.074 124.858 351.828 124.88C351.578 124.913 351.339 125.007 351.133 125.154C350.723 125.429 350.419 125.836 350.272 126.308C350.115 126.768 350.029 127.249 350.016 127.736C350.016 128.23 350.016 128.706 350.016 129.182C350.06 130.169 350.251 131.144 350.584 132.075C350.92 133.021 351.508 133.856 352.286 134.491C352.68 134.809 353.126 135.056 353.604 135.223C354.089 135.376 354.602 135.42 355.106 135.352C355.599 135.272 356.065 135.071 356.46 134.766C356.851 134.459 357.185 134.088 357.449 133.667C357.945 132.829 358.298 131.913 358.492 130.958C358.602 130.5 358.694 130.042 358.767 129.566C358.868 129.103 358.923 128.631 358.932 128.157C358.945 127.668 358.804 127.188 358.529 126.784C358.398 126.58 358.215 126.415 357.998 126.308C357.774 126.187 357.513 126.155 357.266 126.216C357.029 126.288 356.819 126.428 356.662 126.619C356.504 126.793 356.375 126.991 356.277 127.205C356.092 127.63 355.968 128.08 355.911 128.541C355.604 130.306 355.894 132.122 356.735 133.704C357.181 134.459 357.811 135.089 358.566 135.535C359.292 135.969 360.14 136.156 360.982 136.066C361.803 135.933 362.545 135.502 363.069 134.857C363.59 134.252 363.898 133.494 363.948 132.697C363.979 132.308 363.935 131.916 363.82 131.544C363.706 131.17 363.475 130.843 363.161 130.61C362.988 130.514 362.791 130.47 362.593 130.482C362.394 130.51 362.209 130.6 362.062 130.738C361.804 131.007 361.627 131.343 361.55 131.708C361.408 132.395 361.347 133.095 361.367 133.795C361.367 134.473 361.367 135.132 361.367 135.773C361.257 140.972 361.239 145.183 361.367 148.094C361.367 149.54 361.367 150.675 361.458 151.444C361.458 151.81 361.458 152.103 361.458 152.304C361.458 152.506 361.458 152.597 361.458 152.597V151.444C361.458 150.675 361.458 149.613 361.458 148.094C361.458 145.183 361.458 140.972 361.586 135.791V133.795C361.565 133.107 361.626 132.419 361.77 131.745C361.849 131.405 362.013 131.09 362.245 130.83C362.368 130.711 362.527 130.637 362.696 130.62C362.866 130.603 363.036 130.645 363.179 130.738C363.465 130.947 363.677 131.242 363.783 131.58C363.893 131.935 363.93 132.309 363.893 132.679C363.844 133.45 363.541 134.184 363.033 134.766C362.543 135.383 361.836 135.79 361.056 135.901C360.245 135.994 359.427 135.813 358.73 135.388C357.981 134.975 357.351 134.376 356.9 133.649C356.078 132.094 355.801 130.309 356.112 128.578C356.172 128.137 356.289 127.706 356.46 127.296C356.537 127.094 356.655 126.911 356.806 126.756C356.958 126.602 357.139 126.48 357.339 126.399C357.551 126.358 357.77 126.383 357.967 126.472C358.164 126.56 358.328 126.708 358.438 126.894C358.679 127.277 358.806 127.722 358.804 128.175C358.793 128.643 358.738 129.109 358.639 129.566C358.566 130.03 358.474 130.488 358.364 130.939C358.167 131.874 357.821 132.77 357.339 133.594C357.104 134.003 356.786 134.359 356.405 134.638C356.022 134.925 355.577 135.12 355.106 135.205C354.141 135.295 353.179 134.999 352.433 134.381C351.668 133.769 351.095 132.949 350.785 132.02C350.457 131.114 350.271 130.163 350.236 129.2C350.142 128.255 350.216 127.3 350.455 126.381C350.603 125.95 350.885 125.577 351.261 125.319C351.436 125.185 351.644 125.101 351.863 125.075C352.082 125.049 352.304 125.083 352.506 125.173C352.895 125.408 353.182 125.78 353.311 126.216C353.451 126.641 353.519 127.087 353.513 127.534C353.528 128.437 353.321 129.33 352.909 130.134C352.486 130.907 351.851 131.543 351.078 131.965C350.332 132.403 349.469 132.601 348.606 132.532C347.77 132.488 346.969 132.18 346.318 131.653C345.998 131.412 345.739 131.099 345.561 130.74C345.383 130.381 345.291 129.985 345.293 129.585C345.308 129.191 345.435 128.81 345.659 128.486C345.761 128.327 345.898 128.193 346.06 128.095C346.222 127.996 346.404 127.936 346.593 127.919C346.778 127.908 346.964 127.937 347.137 128.003C347.311 128.07 347.468 128.172 347.599 128.303C347.871 128.563 348.078 128.883 348.204 129.237C348.438 129.939 348.555 130.675 348.551 131.415C348.551 132.166 348.551 132.88 348.661 133.594C348.661 135.004 348.771 136.359 348.789 137.658C348.918 142.858 348.789 147.068 348.643 149.961C348.643 151.407 348.497 152.542 348.442 153.311V154.172L348.515 154.501Z" fill="white"/>
<path d="M363.617 147.307L363.891 147.197C364.154 147.103 364.411 146.993 364.66 146.868C365.603 146.449 366.509 145.953 367.37 145.385C370.259 143.528 372.673 141.02 374.418 138.062C375.378 136.449 376.128 134.72 376.652 132.917C377.089 131.451 377.365 129.94 377.476 128.414C377.556 127.384 377.556 126.349 377.476 125.32C377.476 124.954 377.476 124.679 377.476 124.496C377.476 124.313 377.476 124.203 377.476 124.203V124.496C377.49 124.77 377.49 125.045 377.476 125.32C377.67 129.755 376.57 134.15 374.308 137.97C372.557 140.894 370.181 143.394 367.351 145.293C366.497 145.862 365.604 146.37 364.679 146.813L363.928 147.179L363.617 147.307Z" fill="#263238"/>
<path d="M376.252 119.772C376.267 120.185 376.347 120.593 376.49 120.981C376.565 121.386 376.707 121.776 376.912 122.134C376.873 121.723 376.787 121.317 376.655 120.926C376.566 120.527 376.431 120.14 376.252 119.772Z" fill="#263238"/>
<path d="M334.327 132.936V132.679L334.162 131.984L334.052 131.471C334.052 131.288 334.016 131.087 333.942 130.867C333.942 130.427 333.778 129.933 333.741 129.366C333.741 129.091 333.741 128.798 333.741 128.487C333.741 128.176 333.741 127.864 333.741 127.535C333.741 126.876 333.741 126.18 333.741 125.448C333.873 123.843 334.161 122.255 334.601 120.706C335.069 119.169 335.682 117.679 336.432 116.257C336.76 115.629 337.12 115.018 337.512 114.427C337.695 114.152 337.86 113.878 338.043 113.64L338.592 112.944C338.922 112.486 339.27 112.138 339.563 111.79L339.984 111.333L340.368 110.967L340.881 110.472L341.046 110.271L340.863 110.436L340.313 110.93L339.929 111.278C339.78 111.422 339.639 111.575 339.508 111.736C339.146 112.09 338.809 112.469 338.501 112.871L337.952 113.566C337.754 113.818 337.571 114.081 337.402 114.353C336.998 114.943 336.625 115.555 336.286 116.184C335.53 117.616 334.916 119.118 334.455 120.67C334.011 122.223 333.729 123.818 333.613 125.43C333.577 126.131 333.577 126.834 333.613 127.535C333.613 127.883 333.613 128.194 333.613 128.505C333.613 128.816 333.613 129.091 333.704 129.384C333.796 129.677 333.869 130.446 333.942 130.885C333.973 131.089 334.015 131.291 334.07 131.489L334.199 132.002C334.199 132.295 334.345 132.515 334.4 132.698C334.367 132.774 334.343 132.854 334.327 132.936Z" fill="#263238"/>
<path d="M355.728 109.722C356.002 109.175 356.39 108.693 356.868 108.311C357.345 107.928 357.899 107.654 358.493 107.507C360.363 106.928 362.385 107.098 364.132 107.983C366.545 109.03 368.699 110.594 370.442 112.565C372.185 114.535 373.475 116.865 374.219 119.388C375.055 121.667 375.113 124.158 374.384 126.473C374.166 126.957 373.853 127.391 373.463 127.75C373.073 128.108 372.614 128.384 372.114 128.56C369.441 129.421 367.244 126.876 366.329 124.404C365.413 121.933 365.139 119.498 363.436 117.741C361.854 116.499 360.119 115.465 358.273 114.665C356.534 113.621 354.96 111.608 355.728 109.722Z" fill="white"/>
<path d="M346.171 109.063C346.597 108.341 347.251 107.783 348.03 107.474C348.809 107.166 349.669 107.126 350.473 107.36C351.01 107.6 351.484 107.959 351.862 108.409C352.239 108.86 352.509 109.39 352.652 109.96C352.799 110.647 352.739 111.362 352.478 112.014C352.217 112.666 351.768 113.226 351.187 113.621C350.591 113.999 349.891 114.178 349.187 114.132C348.483 114.086 347.811 113.817 347.269 113.365C346.695 112.828 346.286 112.137 346.091 111.375C345.896 110.612 345.924 109.81 346.171 109.063Z" fill="white"/>
<path d="M360.766 166.237C360.266 166.59 359.817 167.009 359.429 167.482C359.303 167.651 359.141 167.79 358.954 167.889C358.767 167.987 358.56 168.042 358.349 168.049L354.157 168.159C353.925 168.168 353.695 168.12 353.487 168.017C353.279 167.915 353.1 167.762 352.967 167.573C352.617 167.06 352.099 166.684 351.502 166.512L360.766 166.237Z" fill="#455A64"/>
<path d="M364.954 154.447C364.954 154.539 364.185 161.111 363.874 163.601C363.818 164.11 363.636 164.597 363.346 165.019C363.055 165.441 362.664 165.784 362.208 166.017C361.839 166.205 361.432 166.305 361.018 166.31L351.864 166.567C351.864 166.567 349.466 166.567 348.862 164.736C348.257 162.905 347.031 154.923 347.031 154.923L364.954 154.447Z" fill="#263238"/>
<path d="M348.258 163.912L364.222 163.528C364.282 163.525 364.341 163.511 364.396 163.486C364.45 163.461 364.5 163.425 364.54 163.381C364.581 163.337 364.613 163.285 364.634 163.228C364.654 163.172 364.664 163.112 364.661 163.052C364.661 162.93 364.613 162.814 364.527 162.728C364.441 162.642 364.325 162.594 364.204 162.594L348.239 162.997C348.18 162.997 348.122 163.009 348.067 163.032C348.012 163.055 347.963 163.089 347.922 163.132C347.881 163.175 347.849 163.225 347.828 163.281C347.807 163.336 347.798 163.395 347.8 163.455C347.794 163.516 347.802 163.578 347.823 163.636C347.844 163.694 347.878 163.747 347.922 163.791C347.965 163.834 348.018 163.868 348.076 163.889C348.134 163.91 348.196 163.918 348.258 163.912Z" fill="#E0E0E0"/>
<path d="M348.259 163.913C348.145 163.903 348.036 163.859 347.948 163.784C347.901 163.733 347.865 163.672 347.843 163.606C347.821 163.54 347.813 163.469 347.82 163.4C347.822 163.306 347.855 163.215 347.915 163.142C347.975 163.068 348.057 163.018 348.149 162.997C349.01 162.997 350.291 162.997 351.811 162.997L364.15 162.723C364.213 162.718 364.276 162.729 364.333 162.755C364.391 162.78 364.441 162.82 364.48 162.869C364.49 162.93 364.49 162.992 364.48 163.052V163.235C364.463 163.296 364.43 163.352 364.385 163.397C364.34 163.442 364.285 163.475 364.223 163.491C364.083 163.502 363.942 163.502 363.802 163.491H362.081L358.804 163.583L353.312 163.729L349.651 163.858H353.312L358.804 163.748H362.081H363.912H364.113C364.192 163.763 364.273 163.763 364.351 163.748C364.432 163.721 364.506 163.675 364.566 163.615C364.627 163.555 364.672 163.481 364.699 163.4C364.718 163.315 364.718 163.228 364.699 163.144C364.697 163.056 364.664 162.972 364.608 162.906C364.561 162.832 364.496 162.771 364.419 162.729C364.342 162.688 364.256 162.667 364.168 162.668L351.829 162.997C350.255 162.997 348.991 162.997 348.168 163.125C348.064 163.15 347.972 163.208 347.906 163.291C347.839 163.374 347.803 163.477 347.801 163.583C347.798 163.658 347.81 163.733 347.839 163.803C347.867 163.872 347.911 163.935 347.966 163.986C348.017 163.996 348.07 163.995 348.121 163.983C348.172 163.97 348.219 163.946 348.259 163.913Z" fill="#263238"/>
<path d="M347.857 161.862L364.517 161.459C364.637 161.45 364.749 161.395 364.83 161.307C364.912 161.219 364.957 161.103 364.956 160.983C364.947 160.863 364.893 160.751 364.805 160.67C364.716 160.588 364.6 160.543 364.48 160.543L347.839 160.964C347.779 160.964 347.721 160.976 347.666 161C347.612 161.023 347.562 161.057 347.521 161.1C347.48 161.142 347.448 161.193 347.427 161.248C347.406 161.304 347.397 161.363 347.399 161.422C347.404 161.54 347.454 161.652 347.54 161.734C347.625 161.816 347.739 161.862 347.857 161.862Z" fill="#E0E0E0"/>
<path d="M347.857 161.861C347.741 161.846 347.632 161.795 347.546 161.715C347.494 161.663 347.455 161.599 347.432 161.529C347.41 161.459 347.405 161.384 347.418 161.312C347.43 161.216 347.475 161.127 347.545 161.061C347.615 160.994 347.706 160.953 347.802 160.946H351.665L364.48 160.653C364.545 160.644 364.612 160.656 364.67 160.685C364.729 160.714 364.778 160.761 364.81 160.818C364.828 160.877 364.828 160.941 364.81 161.001C364.823 161.033 364.83 161.067 364.83 161.101C364.83 161.136 364.823 161.17 364.81 161.202C364.789 161.262 364.752 161.316 364.704 161.358C364.656 161.399 364.598 161.428 364.535 161.44H364.114H362.283L358.878 161.532L353.111 161.696L349.23 161.806H353.111L358.878 161.678H362.283H364.114H364.59C364.677 161.661 364.759 161.622 364.826 161.564C364.893 161.506 364.945 161.432 364.975 161.349C364.991 161.264 364.991 161.177 364.975 161.092C364.972 161.023 364.956 160.954 364.927 160.89C364.898 160.827 364.857 160.77 364.806 160.722C364.755 160.675 364.695 160.637 364.63 160.613C364.565 160.589 364.495 160.577 364.425 160.58L351.61 160.928L347.729 161.037C347.62 161.05 347.52 161.102 347.446 161.183C347.372 161.263 347.33 161.367 347.326 161.477C347.316 161.553 347.324 161.632 347.349 161.705C347.375 161.778 347.417 161.844 347.473 161.898C347.637 161.916 347.875 161.861 347.857 161.861Z" fill="#263238"/>
<path d="M347.636 159.811L364.717 159.39C364.777 159.388 364.836 159.373 364.891 159.348C364.945 159.323 364.994 159.287 365.035 159.243C365.076 159.199 365.108 159.147 365.128 159.09C365.149 159.034 365.159 158.974 365.156 158.914C365.156 158.792 365.108 158.676 365.022 158.59C364.936 158.504 364.82 158.456 364.698 158.456L347.618 158.877C347.557 158.88 347.498 158.894 347.444 158.919C347.389 158.944 347.34 158.98 347.299 159.024C347.258 159.068 347.227 159.12 347.206 159.177C347.185 159.233 347.176 159.293 347.178 159.353C347.178 159.475 347.226 159.591 347.312 159.677C347.398 159.763 347.514 159.811 347.636 159.811Z" fill="#E0E0E0"/>
<path d="M347.638 159.811C347.521 159.796 347.413 159.744 347.327 159.664C347.275 159.608 347.237 159.541 347.215 159.468C347.193 159.396 347.187 159.319 347.198 159.243C347.218 159.147 347.267 159.06 347.339 158.994C347.412 158.928 347.504 158.887 347.601 158.877H351.574L364.7 158.584C364.768 158.577 364.835 158.591 364.894 158.624C364.953 158.657 365 158.707 365.03 158.767C365.048 158.827 365.048 158.891 365.03 158.95C365.039 159.017 365.039 159.085 365.03 159.152C365.002 159.212 364.958 159.264 364.903 159.303C364.849 159.342 364.785 159.365 364.719 159.372H364.261H362.43L358.934 159.463L353.039 159.61L349.066 159.738H353.039L358.934 159.61H362.43H364.261H364.737C364.83 159.597 364.918 159.56 364.992 159.502C365.066 159.444 365.123 159.367 365.158 159.28C365.175 159.195 365.175 159.108 365.158 159.024C365.144 158.927 365.113 158.834 365.067 158.749C365.019 158.67 364.952 158.605 364.872 158.56C364.791 158.516 364.701 158.492 364.609 158.493L351.482 158.841L347.51 158.969C347.4 158.98 347.297 159.027 347.218 159.104C347.138 159.18 347.086 159.281 347.07 159.39C347.059 159.468 347.064 159.548 347.086 159.624C347.109 159.699 347.147 159.77 347.198 159.829C347.269 159.856 347.345 159.868 347.42 159.864C347.495 159.861 347.569 159.843 347.638 159.811Z" fill="#263238"/>
<path d="M364.888 156.366L347.135 156.803C346.883 156.809 346.683 157.019 346.689 157.272L346.69 157.308C346.696 157.561 346.906 157.761 347.159 157.755L364.912 157.318C365.164 157.311 365.364 157.102 365.358 156.849L365.357 156.812C365.351 156.56 365.141 156.36 364.888 156.366Z" fill="#E0E0E0"/>
<path d="M347.178 157.761C347.053 157.741 346.938 157.684 346.848 157.596C346.814 157.528 346.797 157.453 346.797 157.376C346.797 157.3 346.814 157.225 346.848 157.157C346.866 157.056 346.921 156.966 347.003 156.905C347.085 156.844 347.186 156.816 347.288 156.827H351.407L365.028 156.516C365.094 156.511 365.161 156.526 365.219 156.559C365.278 156.591 365.326 156.64 365.357 156.699C365.388 156.762 365.404 156.83 365.404 156.9C365.404 156.97 365.388 157.039 365.357 157.102C365.325 157.161 365.277 157.211 365.219 157.247C365.162 157.282 365.095 157.302 365.028 157.303H364.533H362.703L359.041 157.395L352.926 157.559L348.807 157.688H352.926L359.041 157.559L362.703 157.468H364.533H365.028C365.124 157.467 365.218 157.439 365.298 157.387C365.379 157.335 365.444 157.262 365.485 157.175C365.521 157.087 365.521 156.988 365.485 156.9C365.503 156.81 365.503 156.716 365.485 156.626C365.433 156.542 365.36 156.473 365.273 156.425C365.187 156.377 365.09 156.351 364.991 156.351L351.388 156.717L347.269 156.845C347.17 156.842 347.073 156.869 346.989 156.922C346.906 156.975 346.84 157.052 346.801 157.142C346.761 157.233 346.75 157.333 346.768 157.431C346.786 157.528 346.833 157.617 346.903 157.688C346.973 157.76 347.062 157.81 347.159 157.834L347.178 157.761Z" fill="#263238"/>
<path d="M367.113 148.735C367.113 148.9 366.857 152.927 366.711 154.978C366.68 155.343 366.569 155.696 366.386 156.013C366.202 156.329 365.95 156.601 365.649 156.809L364.733 157.449L347.012 157.944L346.06 157.376C345.741 157.176 345.471 156.909 345.269 156.592C345.066 156.276 344.936 155.918 344.888 155.545L344.192 149.339L367.113 148.735Z" fill="#F36D45"/>
<path d="M363.635 163.491C361.905 163.878 360.136 164.069 358.363 164.058C356.843 164.058 355.36 164.168 353.731 164.187C352.523 164.187 351.406 164.187 350.216 164.187C349.734 164.195 349.255 164.108 348.806 163.93L363.635 163.491Z" fill="black"/>
<path d="M364.204 161.404C362.338 161.798 360.435 161.994 358.528 161.989C356.899 161.989 355.288 162.099 353.53 162.118C352.231 162.118 351.022 162.118 349.741 162.118C349.221 162.131 348.704 162.037 348.221 161.843L364.204 161.404Z" fill="black"/>
<path d="M364.112 159.372C362.244 159.751 360.343 159.941 358.437 159.939C356.808 159.939 355.197 160.068 353.421 160.068C352.139 160.068 350.931 160.068 349.649 160.068C349.131 160.077 348.616 159.99 348.13 159.811L364.112 159.372Z" fill="black"/>
<path d="M364.112 157.322C362.24 157.711 360.331 157.901 358.419 157.889C356.789 157.889 355.197 158.018 353.421 158.036H349.631C349.118 158.053 348.608 157.966 348.13 157.78L364.112 157.322Z" fill="black"/>
<path d="M345.348 156.425C345.348 156.425 350.089 156.425 355.929 156.205C361.77 155.985 366.529 155.875 366.529 155.82C366.529 155.765 361.788 155.82 355.929 156.04C350.071 156.26 345.348 156.388 345.348 156.425Z" fill="#263238"/>
<path d="M344.3 149.266C344.3 149.266 349.463 149.266 355.816 149.065C362.168 148.863 367.313 148.754 367.313 148.699C367.313 148.644 362.168 148.699 355.816 148.9C349.463 149.101 344.3 149.211 344.3 149.266Z" fill="#263238"/>
<path d="M285.958 148.461C288.172 148.506 290.325 147.732 292.004 146.288C293.683 144.843 294.769 142.83 295.055 140.634C295.341 138.438 294.806 136.213 293.553 134.387C292.3 132.561 290.417 131.262 288.265 130.739C289.508 129.22 290.242 127.349 290.363 125.39C290.484 123.431 289.986 121.484 288.939 119.824C287.892 118.164 286.35 116.875 284.53 116.139C282.711 115.404 280.706 115.26 278.8 115.727C278.553 113.811 277.815 111.992 276.656 110.446C275.498 108.9 273.959 107.681 272.189 106.907C270.419 106.133 268.479 105.83 266.558 106.028C264.636 106.226 262.799 106.918 261.224 108.038C258.905 106.461 256.125 105.704 253.326 105.886C250.527 106.069 247.869 107.18 245.773 109.045C243.867 108.862 241.954 109.295 240.312 110.28C238.671 111.265 237.389 112.75 236.653 114.518C235.918 116.285 235.769 118.241 236.227 120.1C236.686 121.958 237.728 123.621 239.201 124.844" fill="#263238"/>
<path d="M287.368 149.614C285.797 140.165 280.727 131.653 273.166 125.771C265.605 119.889 256.107 117.068 246.561 117.869L244.602 118.052C223.493 121.073 214.285 140.68 217.891 161.697L226.917 232.053L229.205 248.64L277.153 241.152L275.56 223.156C275.56 223.156 295.698 218.268 294.215 197.873C293.501 188.005 290.389 167.83 287.368 149.614Z" fill="#FFBE9D"/>
<path d="M275.724 223.118C266.263 223.947 256.763 222.04 248.354 217.626C248.354 217.626 255.878 231.759 276.053 228.207L275.724 223.118Z" fill="#DFA27F"/>
<path d="M283.562 168.599C283.635 169.356 283.41 170.112 282.935 170.707C282.46 171.301 281.772 171.688 281.017 171.784C280.648 171.846 280.271 171.834 279.907 171.747C279.544 171.66 279.201 171.501 278.901 171.279C278.6 171.057 278.347 170.776 278.157 170.454C277.967 170.132 277.844 169.775 277.795 169.404C277.723 168.649 277.948 167.895 278.423 167.303C278.899 166.712 279.586 166.329 280.34 166.237C280.707 166.172 281.084 166.182 281.448 166.267C281.812 166.351 282.154 166.509 282.455 166.73C282.756 166.95 283.01 167.23 283.2 167.551C283.39 167.872 283.513 168.229 283.562 168.599Z" fill="#263238"/>
<path d="M283.834 159.958C283.505 160.36 281.162 158.914 278.031 159.189C274.9 159.463 272.722 161.221 272.356 160.873C271.989 160.525 272.484 159.994 273.417 159.189C274.688 158.119 276.264 157.478 277.921 157.358C279.553 157.206 281.19 157.585 282.59 158.438C283.56 159.042 283.999 159.775 283.834 159.958Z" fill="#263238"/>
<path d="M255.057 171.107C255.129 171.865 254.901 172.621 254.422 173.214C253.942 173.806 253.25 174.186 252.494 174.274C252.126 174.339 251.749 174.329 251.385 174.244C251.022 174.16 250.679 174.002 250.378 173.781C250.077 173.561 249.824 173.281 249.633 172.96C249.443 172.639 249.32 172.282 249.271 171.912C249.204 171.153 249.433 170.397 249.911 169.803C250.389 169.209 251.078 168.823 251.834 168.727C252.203 168.667 252.579 168.682 252.942 168.77C253.305 168.858 253.646 169.017 253.946 169.239C254.246 169.46 254.499 169.74 254.69 170.061C254.881 170.381 255.005 170.737 255.057 171.107Z" fill="#263238"/>
<path d="M253.074 163.125C252.763 163.546 250.401 162.099 247.27 162.374C244.14 162.649 241.98 164.406 241.613 164.04C241.247 163.674 241.742 163.18 242.675 162.356C243.955 161.3 245.526 160.661 247.179 160.525C248.804 160.391 250.43 160.769 251.829 161.605C252.854 162.282 253.239 162.942 253.074 163.125Z" fill="#263238"/>
<path d="M266.406 185.406C268.016 184.75 269.701 184.295 271.423 184.051C272.21 183.905 272.96 183.685 273.052 183.136C273.042 182.305 272.788 181.496 272.32 180.811C271.404 178.98 270.489 176.966 269.445 174.916C265.418 166.512 262.434 159.592 262.781 159.427C263.129 159.263 266.644 165.945 270.672 174.348C271.642 176.417 272.503 178.394 273.455 180.28C274.034 181.2 274.274 182.295 274.132 183.374C274.04 183.667 273.882 183.936 273.669 184.158C273.456 184.38 273.195 184.551 272.906 184.655C272.476 184.818 272.026 184.923 271.569 184.966C269.875 185.336 268.139 185.484 266.406 185.406Z" fill="#263238"/>
<path d="M253.39 153.184C253.042 154.008 250.278 153.386 246.964 153.551C243.65 153.715 240.923 154.503 240.557 153.697C240.392 153.331 240.904 152.562 242.039 151.866C243.514 150.962 245.199 150.457 246.928 150.402C248.628 150.319 250.32 150.685 251.834 151.463C252.987 152.068 253.537 152.782 253.39 153.184Z" fill="#263238"/>
<path d="M282.883 147.033C282.298 147.784 279.643 147.271 276.531 147.491C273.418 147.71 270.837 148.461 270.16 147.765C269.867 147.436 270.16 146.685 271.313 145.934C272.83 144.957 274.581 144.4 276.384 144.323C278.17 144.191 279.959 144.538 281.565 145.33C282.737 145.953 283.158 146.648 282.883 147.033Z" fill="#263238"/>
<path d="M284.622 140.424C284.622 140.424 278.16 128.121 271.807 125.65C264.045 122.684 261.518 131.142 254.25 129.751C246.982 128.359 239.604 125.503 232.794 131.581C225.343 138.264 229.425 142.163 229.7 151.244C230.798 188.078 224.977 199.008 221.626 181.909C221.242 180.078 215.878 178.961 214.413 171.034C212.582 160.763 211.081 148.205 212.765 140.644C214.193 134.291 217.379 129.659 223.311 124.441C232.684 116.148 246.433 114.83 255.843 114.976C265.253 115.123 284.128 124.368 284.622 140.424Z" fill="#263238"/>
<path d="M222.833 181.249C222.752 180.501 222.518 179.777 222.145 179.122C221.772 178.468 221.269 177.898 220.666 177.446C220.063 176.994 219.374 176.672 218.642 176.498C217.909 176.324 217.148 176.302 216.407 176.435C212.636 177.112 208.59 179.62 209.505 187.419C211.116 201.315 224.737 196.829 224.719 196.426C224.7 196.024 223.565 187.071 222.833 181.249Z" fill="#FFBE9D"/>
<path d="M221.094 191.593C221.094 191.593 220.856 191.794 220.472 192.014C220.199 192.177 219.897 192.283 219.582 192.327C219.268 192.371 218.948 192.352 218.641 192.27C217.103 191.904 215.602 189.707 215.236 187.217C215.064 186.028 215.157 184.815 215.51 183.666C215.591 183.216 215.78 182.793 216.061 182.432C216.341 182.072 216.705 181.785 217.121 181.597C217.39 181.493 217.687 181.485 217.961 181.575C218.234 181.665 218.468 181.848 218.623 182.091C218.861 182.457 218.787 182.75 218.879 182.768C218.97 182.787 219.135 182.494 218.879 181.945C218.762 181.606 218.529 181.32 218.22 181.139C217.806 180.894 217.313 180.822 216.847 180.938C216.288 181.117 215.784 181.437 215.383 181.867C214.983 182.296 214.699 182.821 214.558 183.391C214.11 184.664 213.978 186.028 214.174 187.364C214.595 190.146 216.334 192.6 218.403 192.856C218.79 192.919 219.185 192.896 219.562 192.789C219.939 192.681 220.287 192.492 220.582 192.234C221.094 191.996 221.131 191.611 221.094 191.593Z" fill="#814943"/>
<path d="M220.821 154.227C222.647 155.473 224.755 156.241 226.954 156.461C228.06 156.54 229.157 156.211 230.037 155.536C230.918 154.861 231.521 153.888 231.732 152.799C231.732 151.811 231.494 150.712 232.062 149.907C232.629 149.101 234.167 149.12 235.357 149.138C237.407 149.121 239.389 148.401 240.972 147.098C242.555 145.795 243.643 143.988 244.053 141.98C244.733 142.624 245.634 142.982 246.571 142.982C247.507 142.982 248.408 142.624 249.088 141.98C250.443 140.693 251.608 139.219 252.548 137.604C253.022 136.797 253.688 136.119 254.486 135.631C255.284 135.142 256.191 134.858 257.125 134.803C258.138 135.053 259.176 135.188 260.219 135.206C262.05 134.895 262.745 132.68 262.874 130.849C263.002 129.018 263.038 126.858 264.503 125.741C265.968 124.624 267.762 125.082 269.464 125.192C271.167 125.302 273.309 124.716 273.602 123.031C273.639 122.585 273.585 122.136 273.443 121.711C273.301 121.287 273.075 120.895 272.778 120.56C271.491 118.974 269.711 117.863 267.721 117.406C265.73 116.948 263.644 117.169 261.793 118.033C260.909 115.773 259.375 113.825 257.385 112.436C255.395 111.046 253.037 110.277 250.611 110.226C248.184 110.176 245.797 110.845 243.75 112.149C241.703 113.454 240.089 115.336 239.11 117.557C237.518 116.338 235.654 115.522 233.678 115.178C231.701 114.834 229.671 114.972 227.76 115.582C225.849 116.191 224.114 117.253 222.701 118.678C221.289 120.103 220.242 121.847 219.649 123.764C217.906 123.458 216.111 123.672 214.487 124.379C212.864 125.086 211.485 126.255 210.521 127.74C209.557 129.224 209.051 130.96 209.066 132.73C209.081 134.501 209.617 136.227 210.606 137.696C209.365 138.451 208.336 139.51 207.616 140.771C206.895 142.033 206.507 143.456 206.486 144.909C206.669 147.802 209.727 150.401 212.455 149.431C211.989 150.612 211.991 151.926 212.459 153.106C212.928 154.287 213.828 155.244 214.977 155.785C216.126 156.325 217.437 156.409 218.645 156.017C219.853 155.626 220.867 154.79 221.48 153.678" fill="#263238"/>
<path d="M263.202 122.134C263.202 122.134 263.202 122.226 263.202 122.391C263.219 122.641 263.219 122.891 263.202 123.141C263.092 124.105 262.826 125.045 262.414 125.924C261.759 127.308 260.794 128.523 259.595 129.476C258.041 130.754 256.113 131.493 254.103 131.581L254.322 131.251C254.835 132.494 254.835 133.89 254.322 135.133C253.806 136.447 253.103 137.68 252.235 138.794C251.819 139.415 251.341 139.991 250.807 140.515C250.188 141.023 249.452 141.369 248.665 141.522C247.855 141.715 247.009 141.704 246.204 141.49C245.399 141.276 244.659 140.866 244.052 140.295L244.546 140.112C244.478 141.576 244.102 143.01 243.442 144.319C242.783 145.628 241.856 146.783 240.72 147.71C239.475 148.786 237.913 149.428 236.271 149.541C234.722 149.605 233.174 149.4 231.694 148.937L232.042 148.735C231.461 150.48 230.454 152.053 229.113 153.312C228.501 153.935 227.758 154.414 226.938 154.715C226.118 155.016 225.241 155.131 224.371 155.051C222.882 154.861 221.48 154.24 220.338 153.265C219.197 152.289 218.365 151.001 217.945 149.559L218.275 149.669C216.879 150.581 215.208 150.976 213.552 150.786C212.313 150.661 211.122 150.247 210.073 149.577C209.422 149.157 208.852 148.624 208.389 148.003C208.213 147.794 208.071 147.559 207.968 147.307C208.573 148.133 209.331 148.836 210.201 149.376C211.227 149.986 212.38 150.349 213.57 150.438C215.143 150.595 216.723 150.201 218.037 149.321L218.275 149.156L218.366 149.449C218.783 150.789 219.575 151.981 220.65 152.883C221.724 153.785 223.035 154.36 224.426 154.539C225.22 154.607 226.018 154.496 226.763 154.214C227.508 153.932 228.18 153.486 228.729 152.909C229.989 151.713 230.933 150.222 231.475 148.57V148.314H231.749C233.173 148.742 234.657 148.933 236.143 148.882C237.675 148.742 239.117 148.098 240.244 147.051C241.322 146.181 242.205 145.094 242.835 143.861C243.466 142.628 243.831 141.276 243.905 139.893V139.215L244.381 139.691C244.92 140.194 245.574 140.558 246.286 140.749C246.998 140.941 247.746 140.955 248.464 140.79C249.135 140.644 249.762 140.343 250.295 139.911C250.798 139.413 251.252 138.867 251.65 138.282C252.495 137.226 253.186 136.054 253.7 134.803C253.936 134.25 254.058 133.656 254.058 133.055C254.058 132.454 253.936 131.859 253.7 131.306L253.572 130.977H253.92C255.864 130.923 257.739 130.242 259.265 129.036C260.443 128.133 261.4 126.975 262.067 125.649C262.657 124.557 263.042 123.366 263.202 122.134Z" fill="#455A64"/>
<path d="M270.378 195.547C270.378 195.693 269.682 196.188 268.272 196.554C266.427 197.013 264.497 197.013 262.652 196.554C260.811 196.09 259.112 195.178 257.709 193.899C256.647 192.911 256.226 192.068 256.336 192.068C256.446 192.068 258.935 194.485 262.945 195.455C266.954 196.426 270.268 195.217 270.378 195.547Z" fill="#263238"/>
<path d="M214.705 240.309L226.257 233.719C226.257 233.719 236.802 246.04 251.155 244.52C260.066 243.34 268.218 238.882 274.021 232.016L316.842 240.731C319.717 241.316 324.971 243.129 329.969 250.287C335.571 258.269 362.062 293.694 362.062 293.694H380.589C383.095 293.691 385.555 294.372 387.703 295.662C389.851 296.952 391.607 298.804 392.782 301.017C395.949 307.059 399.757 315.114 399.391 318.464C398.75 324.103 399.849 339.628 392.269 344.479C389.871 345.999 381.285 350.612 374.584 350.301C364.753 349.843 353.311 344.717 346.72 340.104C341.136 336.204 323.104 322.419 318.106 317.146L317.977 318.428L310.398 368.535C296.356 415.238 224.682 418.79 209.34 377.085L183.417 252.85C183.417 252.85 213.57 240.309 214.705 240.309Z" fill="#F36D45"/>
<path d="M377.316 333.916C371.366 335.527 364.226 326.977 358.825 321.631C356.024 318.849 353.095 315.864 352.07 312.056C351.333 308.848 351.661 305.487 353.004 302.482C354 299.765 355.328 297.183 356.958 294.792C356.464 299.406 355.329 306.473 356.867 312.276C358.394 316.933 361.004 321.162 364.483 324.615C367.924 328.478 371.989 332.543 377.298 333.916" fill="black"/>
<path d="M351.902 329.009C352.011 329.009 351.316 327.05 350.766 323.828C350.438 321.947 350.254 320.044 350.217 318.135C350.176 315.794 350.335 313.454 350.693 311.141C351.072 308.828 351.642 306.55 352.396 304.331C353.029 302.528 353.787 300.773 354.666 299.076C356.185 296.184 357.449 294.573 357.339 294.5C357.008 294.839 356.708 295.206 356.442 295.598C356.094 296.038 355.77 296.496 355.471 296.971C355.124 297.539 354.684 298.143 354.318 298.802C353.369 300.496 352.561 302.266 351.902 304.093C351.093 306.33 350.48 308.633 350.071 310.976C349.729 313.328 349.588 315.704 349.65 318.08C349.715 320.011 349.942 321.934 350.327 323.828C350.46 324.563 350.631 325.29 350.84 326.007C350.967 326.555 351.133 327.093 351.334 327.618C351.461 328.104 351.652 328.572 351.902 329.009Z" fill="#263238"/>
<path d="M269.354 236.355C269.263 236.501 270.581 237.27 271.954 238.515C273.327 239.76 274.261 240.95 274.407 240.858C274.001 239.75 273.283 238.784 272.338 238.076C271.527 237.23 270.492 236.634 269.354 236.355Z" fill="#263238"/>
<path d="M257.654 243.147C257.544 243.275 258.661 244.484 259.576 246.278C260.492 248.072 260.839 249.683 261.004 249.646C260.984 248.378 260.671 247.132 260.09 246.005C259.509 244.877 258.675 243.899 257.654 243.147Z" fill="#263238"/>
<path d="M237.645 250.196C238.565 247.984 239.377 245.73 240.079 243.44C239.298 244.377 238.724 245.469 238.395 246.644C237.899 247.762 237.644 248.972 237.645 250.196Z" fill="#263238"/>
<path d="M224.775 244.099C224.958 244.099 225.398 242.269 226.606 240.108C227.814 237.948 229.371 236.74 229.261 236.593C227.921 237.339 226.827 238.459 226.112 239.815C225.253 241.08 224.788 242.571 224.775 244.099Z" fill="#263238"/>
<path d="M193.615 248.639C193.615 248.639 162.108 254.809 162.218 291.442C162.218 319.764 167.124 358.484 179.866 371.043C192.608 383.602 229.296 397.004 229.296 397.004L195.849 256.365L193.615 248.639Z" fill="#F36D45"/>
<path d="M377.551 259.458C378.228 258.69 373.065 246.185 373.065 246.185C373.065 246.185 379.986 230.386 379.583 225.663C379.18 220.939 374.091 211.822 374.091 211.822L347.636 208.783C347.636 208.783 341.521 225.26 340.624 230.752C339.727 236.245 346.721 254.076 346.721 254.076L352.36 262.882C352.36 262.882 366.786 271.468 377.551 259.458Z" fill="#FFBE9D"/>
<path d="M379.914 228.483C380.661 226.498 381.303 224.475 381.836 222.423C382.916 218.359 384.381 214.313 380.481 212.665C379.863 212.383 379.192 212.237 378.513 212.237C377.834 212.237 377.163 212.383 376.545 212.665C376.545 212.665 376.655 209.351 374.55 208.399C373.94 208.122 373.272 207.995 372.603 208.03C371.934 208.065 371.283 208.261 370.705 208.601C370.705 208.601 370.705 203.951 367.629 202.395C366.49 201.852 365.223 201.637 363.969 201.773C362.715 201.908 361.523 202.39 360.526 203.163C360.526 203.163 359.958 182.897 360.013 181.799C360.178 177.826 358.274 174.585 354.521 176.068C353.148 176.618 352.562 178.229 351.812 184.966C351.061 191.703 349.981 203.163 349.981 203.163C349.981 203.163 346.557 211.603 345.02 216.125C343.482 220.647 340.607 230.881 340.607 233.481C340.607 240.218 345.697 248.438 345.697 248.438L373.158 246.259C373.158 246.259 379.145 230.442 379.914 228.483Z" fill="#FFBE9D"/>
<path d="M376.124 213.525C375.469 214.551 374.899 215.628 374.421 216.747L372.719 220.409C372.361 221.12 372.067 221.862 371.84 222.624C371.547 223.479 371.547 224.406 371.84 225.261C371.974 225.719 372.231 226.131 372.582 226.454C372.934 226.777 373.367 226.997 373.835 227.091C374.686 227.176 375.539 226.949 376.234 226.451C376.827 226.04 377.384 225.581 377.9 225.077C378.376 224.62 378.815 224.18 379.199 223.778C379.987 222.972 380.591 222.276 381.03 221.8C381.256 221.556 381.453 221.285 381.616 220.995C380.69 221.779 379.804 222.61 378.961 223.485C378.036 224.405 377.038 225.25 375.977 226.011C375.392 226.424 374.677 226.613 373.963 226.542C373.603 226.459 373.27 226.283 372.997 226.033C372.724 225.783 372.521 225.466 372.407 225.114C372.178 224.368 372.178 223.571 372.407 222.826C372.628 222.089 372.909 221.373 373.249 220.684L374.824 217.022C375.355 215.895 375.789 214.725 376.124 213.525Z" fill="#814943"/>
<path d="M354.137 218.962C354.185 217.503 353.884 216.053 353.258 214.733C352.804 213.357 352.04 212.104 351.024 211.072C350.878 211.163 351.866 212.793 352.727 214.989C353.587 217.186 353.972 218.999 354.137 218.962Z" fill="#814943"/>
<path d="M344.159 226.304C346.323 223.52 349.258 221.432 352.598 220.3C355.921 219.17 359.397 218.552 362.906 218.469C365.707 218.341 368.965 218.615 370.576 220.922C372.188 223.229 371.107 226.78 368.856 228.593C366.457 230.24 363.599 231.086 360.69 231.009C357.805 230.933 354.922 231.21 352.104 231.833" fill="#FFBE9D"/>
<path d="M352.104 231.833C352.104 231.833 352.854 231.668 354.246 231.485C355.637 231.302 357.632 231.284 360.141 231.229C361.523 231.228 362.901 231.099 364.26 230.845C365.843 230.551 367.346 229.928 368.672 229.014C370.16 227.957 371.188 226.372 371.546 224.583C371.733 223.63 371.663 222.645 371.345 221.727C370.982 220.786 370.344 219.976 369.514 219.402C367.846 218.45 365.939 217.999 364.022 218.102C362.276 218.139 360.534 218.273 358.804 218.505C355.857 218.854 352.99 219.703 350.328 221.013C348.536 221.897 346.913 223.086 345.531 224.528C345.152 224.916 344.803 225.332 344.488 225.773C344.268 226.066 344.176 226.231 344.195 226.249C344.213 226.268 344.689 225.645 345.696 224.675C347.122 223.331 348.746 222.213 350.511 221.361C353.157 220.142 355.982 219.357 358.877 219.036C360.583 218.809 362.301 218.687 364.022 218.67C365.829 218.569 367.627 218.988 369.203 219.878C369.943 220.371 370.512 221.081 370.832 221.91C371.121 222.733 371.184 223.618 371.015 224.473C370.705 226.127 369.767 227.597 368.397 228.574C367.125 229.506 365.662 230.143 364.113 230.442C362.78 230.711 361.427 230.864 360.067 230.899C358.089 230.921 356.114 231.068 354.154 231.339C353.617 231.433 353.085 231.555 352.561 231.705C352.268 231.742 352.085 231.815 352.104 231.833Z" fill="#814943"/>
<path d="M375.955 213.855C373.703 218.596 371.836 223.723 370.06 228.684C369.677 230.169 368.899 231.523 367.808 232.602C366.875 233.389 364.147 232.602 362.938 232.345L368.339 213.379" fill="#FFBE9D"/>
<path d="M368.343 213.379C368.123 213.836 367.952 214.314 367.831 214.807C367.519 215.832 367.098 217.168 366.604 218.798C365.597 222.185 364.206 226.908 362.668 232.272V232.565H362.961C363.858 232.748 364.792 233.004 365.835 233.114C366.243 233.151 366.654 233.151 367.062 233.114C367.281 233.085 367.496 233.03 367.703 232.95C367.906 232.862 368.092 232.738 368.252 232.583C368.821 232.034 369.281 231.382 369.607 230.661C370.229 229.288 370.632 227.933 371.108 226.67C372.023 224.107 372.847 221.819 373.598 219.915C374.348 218.011 374.952 216.491 375.428 215.429C375.694 214.895 375.909 214.338 376.069 213.763C375.751 214.267 375.47 214.793 375.227 215.338C374.733 216.363 374.037 217.882 373.25 219.768C372.462 221.654 371.584 223.942 370.65 226.487C370.156 227.732 369.735 229.123 369.131 230.423C368.833 231.074 368.417 231.664 367.904 232.162C367.621 232.356 367.3 232.489 366.963 232.552C366.626 232.615 366.279 232.607 365.945 232.529C364.975 232.419 364.114 232.162 363.107 231.979L363.327 232.345C364.847 226.981 366.165 222.221 367.08 218.798C367.519 217.168 367.867 215.814 368.142 214.77C368.25 214.313 368.317 213.848 368.343 213.379Z" fill="#814943"/>
<path d="M369.735 207.777C368.063 214.453 366.409 221.136 364.774 227.824C364.506 229.268 363.992 230.655 363.254 231.925C362.877 232.568 362.344 233.105 361.704 233.486C361.063 233.867 360.337 234.079 359.592 234.104C358.589 233.986 357.653 233.537 356.933 232.827C356.214 232.117 355.751 231.188 355.62 230.186C355.416 228.181 355.628 226.155 356.242 224.236C357.72 218.141 358.718 211.941 359.226 205.69" fill="#FFBE9D"/>
<path d="M359.297 205.69C359.237 205.887 359.2 206.089 359.187 206.294C359.187 206.752 359.059 207.338 358.967 208.034C358.784 209.553 358.51 211.695 358.052 214.423C357.594 217.151 357.008 220.281 356.221 223.778C355.661 225.618 355.377 227.53 355.379 229.453C355.452 230.501 355.799 231.512 356.386 232.383C356.976 233.323 357.897 234.009 358.967 234.305C359.511 234.42 360.074 234.418 360.617 234.298C361.16 234.178 361.671 233.943 362.116 233.609C362.963 232.987 363.632 232.154 364.057 231.193C364.739 229.409 365.271 227.572 365.649 225.7C366.473 222.222 367.242 219.073 367.883 216.382L369.348 210.102C369.494 209.407 369.604 208.839 369.714 208.382C369.734 208.181 369.734 207.978 369.714 207.777C369.616 207.954 369.548 208.146 369.512 208.345C369.384 208.803 369.219 209.352 369.036 210.047C368.615 211.604 368.066 213.709 367.389 216.29C366.711 218.872 365.924 222.094 365.027 225.572C364.655 227.408 364.128 229.208 363.453 230.955C363.044 231.829 362.413 232.581 361.622 233.133C361.245 233.426 360.809 233.632 360.344 233.736C359.878 233.84 359.396 233.841 358.931 233.737C358.002 233.475 357.201 232.883 356.679 232.071C356.157 231.272 355.848 230.351 355.782 229.399C355.772 227.539 356.037 225.688 356.569 223.906C357.393 220.391 357.979 217.187 358.4 214.478C358.821 211.768 359.022 209.571 359.15 208.052C359.15 207.301 359.242 206.697 359.26 206.221C359.288 206.046 359.3 205.868 359.297 205.69Z" fill="#814943"/>
<path d="M375.28 254.553C375.28 254.553 392.8 306.217 393.588 308.743C394.375 311.269 390.127 329.742 382.603 334.117C375.079 338.493 360.231 320.277 358.382 313.594C356.533 306.912 358.382 295.598 358.382 295.598L346.574 251.093" fill="#FFBE9D"/>
<path d="M357.266 246.808C357.83 246.794 358.383 246.644 358.877 246.369C360.102 245.79 361.184 244.946 362.044 243.898C362.929 242.835 363.555 241.582 363.875 240.236C364.064 239.702 364.108 239.127 364.003 238.57C363.523 240.332 362.708 241.985 361.605 243.44C360.382 244.825 358.91 245.967 357.266 246.808Z" fill="#814943"/>
<path d="M322.534 275.46C322.809 275.46 321.344 291.296 319.294 310.775C317.243 330.255 315.376 346.017 315.101 345.981C314.827 345.944 316.291 330.145 318.36 310.666C320.429 291.186 322.278 275.424 322.534 275.46Z" fill="#263238"/>
<path d="M196.687 290.587C196.954 290.523 199.232 306.262 201.793 325.681C204.353 345.1 206.222 360.862 205.947 360.891C205.671 360.92 203.402 345.216 200.859 325.793C198.316 306.37 196.429 290.611 196.687 290.587Z" fill="#263238"/>
<path d="M279.775 429.584C278.816 426.441 278.741 423.095 279.559 419.912C280.377 416.729 282.057 413.834 284.413 411.543C286.769 409.253 289.711 407.656 292.916 406.928C296.12 406.201 299.463 406.37 302.577 407.419C302.513 403.917 303.408 400.464 305.166 397.435C306.924 394.405 309.477 391.915 312.549 390.233C315.622 388.551 319.095 387.742 322.595 387.894C326.094 388.046 329.485 389.152 332.4 391.094C334.063 387.968 336.9 385.632 340.286 384.598C343.672 383.564 347.33 383.917 350.456 385.581C353.582 387.244 355.918 390.081 356.952 393.467C357.986 396.853 357.633 400.511 355.969 403.637C358.515 403.025 361.189 403.231 363.612 404.224C366.034 405.217 368.083 406.948 369.467 409.17C370.85 411.393 371.499 413.995 371.321 416.608C371.143 419.22 370.147 421.71 368.475 423.724C378.603 419.269 391.932 428.236 391.595 439.319L268.543 438.963C269.404 437.391 272.456 429.883 279.775 429.584Z" fill="#E0F0F8"/>
<path d="M76.7655 420.158C74.8903 414.016 74.7447 407.475 76.3447 401.255C77.9448 395.035 81.2286 389.377 85.8353 384.902C90.4419 380.427 96.1931 377.308 102.457 375.889C108.72 374.47 115.254 374.805 121.34 376.857C121.193 370.008 122.928 363.249 126.356 357.318C129.784 351.386 134.774 346.509 140.783 343.217C146.791 339.925 153.587 338.345 160.432 338.648C167.276 338.952 173.906 341.127 179.599 344.938C185.945 332.788 202.85 327.565 214.963 334.005C227.075 340.445 232.167 357.369 225.652 369.444C230.662 368.177 235.945 368.538 240.736 370.474C245.527 372.41 249.577 375.821 252.301 380.212C255.024 384.604 256.279 389.748 255.883 394.9C255.488 400.052 253.463 404.945 250.102 408.87C269.89 400.146 295.912 417.687 295.256 439.31L54.8247 438.617C56.5283 435.397 62.4628 420.72 76.7655 420.158Z" fill="#E0F0F8"/>
<defs>
<linearGradient id="paint0_linear_2251_14471" x1="258.5" y1="-68.9989" x2="258.5" y2="428" gradientUnits="userSpaceOnUse">
<stop stop-color="#FEFEFE"/>
<stop offset="1" stop-color="#D9ECF5"/>
</linearGradient>
<linearGradient id="paint1_linear_2251_14471" x1="169.65" y1="366.144" x2="165.631" y2="57.4961" gradientUnits="userSpaceOnUse">
<stop stop-color="#E0ECF2"/>
<stop offset="1" stop-color="#E0ECF2" stop-opacity="0"/>
</linearGradient>
<linearGradient id="paint2_linear_2251_14471" x1="258.5" y1="374.546" x2="258.5" y2="108.357" gradientUnits="userSpaceOnUse">
<stop stop-color="white"/>
<stop offset="1" stop-color="#E0ECF2" stop-opacity="0"/>
</linearGradient>
<linearGradient id="paint3_linear_2251_14471" x1="370.207" y1="391.211" x2="368.821" y2="2.35907" gradientUnits="userSpaceOnUse">
<stop stop-color="white"/>
<stop offset="1" stop-color="white" stop-opacity="0"/>
</linearGradient>
<linearGradient id="paint4_linear_2251_14471" x1="54.6794" y1="274.252" x2="54.6794" y2="386.946" gradientUnits="userSpaceOnUse">
<stop stop-color="#A7C1CC"/>
<stop offset="1" stop-color="#EDF8FD" stop-opacity="0"/>
</linearGradient>
</defs>
</svg>
