<svg width="142" height="35" viewBox="0 0 142 35" fill="none" xmlns="http://www.w3.org/2000/svg">
<path fill-rule="evenodd" clip-rule="evenodd" d="M87.3824 5.43044V30.5901H80.1856L80.1859 28.5821C82.2164 25.57 83.402 21.9388 83.402 18.0304C83.402 14.1219 82.2164 10.4909 80.1859 7.47877L80.1856 5.43044H87.3824ZM50.5588 5.40991C49.1918 6.93214 48.0685 8.6784 47.2504 10.587L38.0497 10.5873V14.8779L45.9905 14.8777C45.8185 15.9029 45.7289 16.9562 45.7289 18.0304C45.7289 18.5425 45.7493 19.0496 45.7893 19.5512H38.0497V25.534L47.2764 25.5343C48.0778 27.3857 49.1666 29.0832 50.4867 30.5702L30.9333 30.5699V5.41029L50.5588 5.40991ZM128.714 5.43044C135.642 5.43044 141.258 11.0581 141.258 18.0002C141.258 24.9423 135.642 30.5699 128.714 30.5699C121.786 30.5699 116.17 24.9423 116.17 18.0002C116.17 11.0581 121.786 5.43044 128.714 5.43044ZM9.46325 5.41029L19.8566 19.9441V5.41029H26.6512V30.5699H19.4041L7.56352 13.5081V30.5699H0.758667V5.41029H9.46325ZM128.724 11.0503C124.888 11.0503 121.779 14.1663 121.779 18.0101C121.779 21.8539 124.888 24.9699 128.724 24.9699C132.56 24.9699 135.67 21.8539 135.67 18.0101C135.67 14.1663 132.56 11.0503 128.724 11.0503ZM116.713 5.43044V10.5873H91.7647V5.43044H116.713Z" fill="black"/>
<path d="M108.186 9.95813H100.989V30.0619H108.186V9.95813Z" fill="black"/>
<path d="M68.6933 8.13661L70.7261 3.26053C76.5099 5.58682 80.5938 11.2582 80.5938 17.8855C80.5938 26.5855 73.5555 33.6383 64.8732 33.6383C63.0981 33.6383 61.3917 33.3435 59.8002 32.8L63.4769 28.2809C63.9375 28.343 64.4077 28.3752 64.8853 28.3752C70.6602 28.3752 75.3415 23.6843 75.3415 17.8976C75.3415 13.4574 72.5851 9.66225 68.6933 8.13661ZM65.2972 7.42805C65.1606 7.42274 65.0234 7.42006 64.8853 7.42006C59.1107 7.42006 54.4293 12.111 54.4293 17.8976C54.4293 22.2702 57.1024 26.0172 60.9004 27.5874L58.5098 32.2944C52.9978 29.8465 49.1527 24.3159 49.1527 17.8855C49.1527 9.18535 56.191 2.13257 64.8732 2.13257C66.3436 2.13257 67.7671 2.33486 69.117 2.7132L65.2972 7.42805Z" fill="#F36D40"/>
<path d="M58.1348 17.1485L71.4337 0.5L65.1198 15.5017L72.1236 17.1485L57.834 34.5L65.9181 18.7904L58.1348 17.1485Z" fill="#F36D40"/>
</svg>
